<?xml version="1.0" encoding="UTF-8" standalone="no"?><!DOCTYPE svg PUBLIC "-//W3C//DTD SVG 1.1//EN" "http://www.w3.org/Graphics/SVG/1.1/DTD/svg11.dtd"><svg width="100%" height="100%" viewBox="0 0 214 214" version="1.1" xmlns="http://www.w3.org/2000/svg" xmlns:xlink="http://www.w3.org/1999/xlink" xml:space="preserve" xmlns:serif="http://www.serif.com/" style="fill-rule:evenodd;clip-rule:evenodd;stroke-linecap:round;stroke-linejoin:round;stroke-miterlimit:1.5;"><g id="home"><circle cx="106.679" cy="106.679" r="102.512" style="fill:#f00;stroke:#f00;stroke-width:8.33px;"/><path d="M82.481,75.72l0,-21.5c0,-1.15 -0.933,-2.084 -2.083,-2.084c-1.15,0 -2.083,0.934 -2.083,2.084l-0,21.5c-0,1.149 0.933,2.083 2.083,2.083c1.15,-0 2.083,-0.934 2.083,-2.083Z" style="fill:#fff;"/><path d="M108.762,99.55l0,-16.273c0,-1.15 -0.933,-2.083 -2.083,-2.083c-1.15,-0 -2.083,0.933 -2.083,2.083l-0,16.273c-0,1.15 0.933,2.083 2.083,2.083c1.15,0 2.083,-0.933 2.083,-2.083Z" style="fill:#fff;"/><path d="M79.527,100.236l5.676,-16.273c0.379,-1.085 -0.195,-2.274 -1.281,-2.653c-1.086,-0.379 -2.274,0.195 -2.653,1.281l-5.676,16.273c-0.379,1.085 0.195,2.274 1.281,2.653c1.085,0.379 2.274,-0.195 2.653,-1.281Z" style="fill:#fff;"/><path d="M134.413,98.864l-5.676,-16.273c-0.378,-1.086 -1.567,-1.66 -2.653,-1.281c-1.086,0.379 -1.659,1.568 -1.281,2.653l5.676,16.273c0.379,1.086 1.568,1.66 2.653,1.281c1.086,-0.379 1.66,-1.568 1.281,-2.653Z" style="fill:#fff;"/><path d="M90.322,75.72l-0,-12.697c-0,-1.15 -0.934,-2.083 -2.083,-2.083c-1.15,-0 -2.084,0.933 -2.084,2.083l0,12.697c0,1.149 0.934,2.083 2.084,2.083c1.149,-0 2.083,-0.934 2.083,-2.083Z" style="fill:#fff;"/><path d="M155.239,105.785l-10.687,-21.583c-0.51,-1.031 -0.088,-2.282 0.942,-2.792c1.031,-0.51 2.282,-0.088 2.792,0.943l11.064,22.344c0.236,0.475 0.281,1.022 0.127,1.529c-1.397,4.615 -3.866,7.646 -7.121,9.045c-4.332,1.863 -10.413,0.814 -17.866,-4.253c-4.537,4.216 -9.1,6.212 -13.758,6.11c-4.558,-0.1 -9.3,-2.238 -14.29,-6.63c-4.66,4.543 -9.068,6.561 -13.503,6.54c-4.428,-0.021 -8.995,-2.116 -14.01,-6.183c-6.542,5.063 -12.454,6.513 -17.01,4.762c-3.367,-1.293 -6.172,-4.331 -8.001,-9.336c-0.196,-0.535 -0.164,-1.126 0.088,-1.637l10.966,-22.226c0.509,-1.031 1.759,-1.455 2.79,-0.947c1.031,0.509 1.455,1.759 0.947,2.79l-10.561,21.406c1.29,3.144 3.028,5.202 5.265,6.061c3.816,1.467 8.651,-0.505 14.201,-5.165c0.784,-0.658 1.929,-0.649 2.703,0.021c4.607,3.988 8.639,6.268 12.642,6.287c3.931,0.019 7.7,-2.202 11.88,-6.695c0.38,-0.409 0.909,-0.648 1.467,-0.664c0.558,-0.015 1.1,0.194 1.502,0.581c4.607,4.432 8.851,6.778 13.016,6.869c4.088,0.09 7.985,-2.036 11.964,-6.101c0.725,-0.74 1.884,-0.836 2.72,-0.224c3.4,2.49 6.45,4.103 9.144,4.864c2.347,0.663 4.375,0.666 6.058,-0.058c2.079,-0.894 3.55,-2.857 4.529,-5.658Z" style="fill:#fff;"/><path d="M146.417,81.194l-79.578,0.062c-1.15,0.001 -2.083,0.936 -2.082,2.085c0.001,1.15 0.935,2.083 2.085,2.082l79.578,-0.062c1.15,-0.001 2.083,-0.936 2.082,-2.085c-0.001,-1.15 -0.935,-2.083 -2.085,-2.082Z" style="fill:#fff;"/><path d="M146.324,73.636l-79.29,0c-1.15,0 -2.084,0.934 -2.084,2.084c0,1.149 0.934,2.083 2.084,2.083l79.29,-0c1.15,-0 2.084,-0.934 2.084,-2.083c-0,-1.15 -0.934,-2.084 -2.084,-2.084Z" style="fill:#fff;"/><path d="M67.034,73.636c-3.236,0 -5.862,2.627 -5.862,5.862c-0,3.236 2.626,5.863 5.862,5.863c-0,-0 79.29,-0 79.29,-0c3.236,-0 5.862,-2.627 5.862,-5.863c0,-3.235 -2.626,-5.862 -5.862,-5.862c-1.15,0 -2.083,0.934 -2.083,2.084c-0,1.149 0.933,2.083 2.083,2.083c0.936,-0 1.696,0.76 1.696,1.695c-0,0.936 -0.76,1.696 -1.696,1.696l-79.29,-0c-0.936,-0 -1.696,-0.76 -1.696,-1.696c0,-0.935 0.76,-1.695 1.696,-1.695c1.149,-0 2.083,-0.934 2.083,-2.083c-0,-1.15 -0.934,-2.084 -2.083,-2.084Z" style="fill:#fff;"/><path d="M148.02,153.926l-0,-38.878c-0,-1.15 0.933,-2.083 2.083,-2.083c1.15,-0 2.083,0.933 2.083,2.083l0,40.961c0,1.151 -0.932,2.084 -2.083,2.084l-86.848,-0c-1.151,-0 -2.083,-0.933 -2.083,-2.084l-0,-40.961c-0,-1.15 0.933,-2.083 2.083,-2.083c1.15,-0 2.083,0.933 2.083,2.083l0,38.878l82.682,0Z" style="fill:#fff;"/><path d="M157.13,153.926l-100.724,0c-1.15,0 -2.084,0.934 -2.084,2.083c0,1.15 0.934,2.084 2.084,2.084l100.724,-0c1.15,-0 2.084,-0.934 2.084,-2.084c-0,-1.149 -0.934,-2.083 -2.084,-2.083Z" style="fill:#fff;"/><path d="M98.309,119.254l-21.047,0c-1.149,0 -2.083,0.934 -2.083,2.083c0,1.15 0.934,2.084 2.083,2.084l21.047,-0c1.15,-0 2.083,-0.934 2.083,-2.084c0,-1.149 -0.933,-2.083 -2.083,-2.083Z" style="fill:#fff;"/><path d="M75.179,121.337l0,34.672c0,1.15 0.934,2.084 2.083,2.084c1.15,-0 2.084,-0.934 2.084,-2.084l-0,-34.672c-0,-1.149 -0.934,-2.083 -2.084,-2.083c-1.149,0 -2.083,0.934 -2.083,2.083Z" style="fill:#fff;"/><path d="M77.262,158.093l21.047,-0c1.15,-0 2.083,-0.934 2.083,-2.084c0,-1.149 -0.933,-2.083 -2.083,-2.083l-21.047,0c-1.149,0 -2.083,0.934 -2.083,2.083c0,1.15 0.934,2.084 2.083,2.084Z" style="fill:#fff;"/><path d="M100.392,156.009l0,-34.672c0,-1.149 -0.933,-2.083 -2.083,-2.083c-1.15,0 -2.083,0.934 -2.083,2.083l-0,34.672c-0,1.15 0.933,2.084 2.083,2.084c1.15,-0 2.083,-0.934 2.083,-2.084Z" style="fill:#fff;"/><path d="M63.255,140.757l14.007,-0c1.15,-0 2.084,-0.934 2.084,-2.084c-0,-1.149 -0.934,-2.083 -2.084,-2.083l-14.007,0c-1.15,0 -2.083,0.934 -2.083,2.083c-0,1.15 0.933,2.084 2.083,2.084Z" style="fill:#fff;"/><path d="M98.309,140.757l7.031,-0c1.15,-0 2.083,-0.934 2.083,-2.084c0,-1.149 -0.933,-2.083 -2.083,-2.083l-7.031,0c-1.15,0 -2.083,0.934 -2.083,2.083c-0,1.15 0.933,2.084 2.083,2.084Z" style="fill:#fff;"/><path d="M93.218,140.855l0,-4.363c0,-1.15 -0.933,-2.083 -2.083,-2.083c-1.15,-0 -2.084,0.933 -2.084,2.083l0,4.363c0,1.15 0.934,2.083 2.084,2.083c1.15,0 2.083,-0.933 2.083,-2.083Z" style="fill:#fff;"/><path d="M72.342,149.544l-0,-4.363c-0,-1.15 -0.934,-2.084 -2.083,-2.084c-1.15,0 -2.084,0.934 -2.084,2.084l0,4.363c0,1.149 0.934,2.083 2.084,2.083c1.149,-0 2.083,-0.934 2.083,-2.083Z" style="fill:#fff;"/><path d="M108.714,149.544l0,-4.363c0,-1.15 -0.933,-2.084 -2.083,-2.084c-1.15,0 -2.083,0.934 -2.083,2.084l-0,4.363c-0,1.149 0.933,2.083 2.083,2.083c1.15,-0 2.083,-0.934 2.083,-2.083Z" style="fill:#fff;"/><path d="M117.294,149.544l-0,-4.363c-0,-1.15 -0.934,-2.084 -2.084,-2.084c-1.15,0 -2.083,0.934 -2.083,2.084l-0,4.363c-0,1.149 0.933,2.083 2.083,2.083c1.15,-0 2.084,-0.934 2.084,-2.083Z" style="fill:#fff;"/><path d="M125.955,149.544l-0,-4.363c-0,-1.15 -0.934,-2.084 -2.083,-2.084c-1.15,0 -2.084,0.934 -2.084,2.084l0,4.363c0,1.149 0.934,2.083 2.084,2.083c1.149,-0 2.083,-0.934 2.083,-2.083Z" style="fill:#fff;"/><path d="M134.699,149.544l-0,-4.363c-0,-1.15 -0.934,-2.084 -2.084,-2.084c-1.149,0 -2.083,0.934 -2.083,2.084l0,4.363c0,1.149 0.934,2.083 2.083,2.083c1.15,-0 2.084,-0.934 2.084,-2.083Z" style="fill:#fff;"/><path d="M143.309,149.544l0,-4.363c0,-1.15 -0.933,-2.084 -2.083,-2.084c-1.15,0 -2.083,0.934 -2.083,2.084l-0,4.363c-0,1.149 0.933,2.083 2.083,2.083c1.15,-0 2.083,-0.934 2.083,-2.083Z" style="fill:#fff;"/><path d="M150.103,136.488l-7.48,-0c-1.15,-0 -2.083,0.933 -2.083,2.083c-0,1.15 0.933,2.084 2.083,2.084l7.48,-0c1.15,-0 2.083,-0.934 2.083,-2.084c0,-1.15 -0.933,-2.083 -2.083,-2.083Z" style="fill:#fff;"/><path d="M133.864,118.882l-19.815,0c-1.15,0 -2.083,0.934 -2.083,2.083c-0,1.15 0.933,2.084 2.083,2.084l19.815,-0c1.149,-0 2.083,-0.934 2.083,-2.084c-0,-1.149 -0.934,-2.083 -2.083,-2.083Z" style="fill:#fff;"/><path d="M114.049,118.882c-2.352,0 -4.262,1.91 -4.262,4.263l-0,13.247c-0,2.353 1.91,4.263 4.262,4.263c1.15,-0 2.083,-0.934 2.083,-2.084c0,-1.15 -0.933,-2.083 -2.083,-2.083c-0.053,-0 -0.096,-0.043 -0.096,-0.096c0,0 0,-13.247 0,-13.247c0,-0.053 0.043,-0.096 0.096,-0.096c1.15,-0 2.083,-0.934 2.083,-2.084c0,-1.149 -0.933,-2.083 -2.083,-2.083Z" style="fill:#fff;"/><path d="M114.049,140.655l19.815,-0c1.149,-0 2.083,-0.934 2.083,-2.084c-0,-1.15 -0.934,-2.083 -2.083,-2.083l-19.815,-0c-1.15,-0 -2.083,0.933 -2.083,2.083c-0,1.15 0.933,2.084 2.083,2.084Z" style="fill:#fff;"/><path d="M133.864,140.655c2.352,-0 4.262,-1.91 4.262,-4.263c0,0 0,-13.247 0,-13.247c0,-2.353 -1.91,-4.263 -4.262,-4.263c-1.15,0 -2.084,0.934 -2.084,2.083c0,1.15 0.934,2.084 2.084,2.084c0.052,-0 0.095,0.043 0.095,0.096l0,13.247c0,0.053 -0.043,0.096 -0.095,0.096c-1.15,-0 -2.084,0.933 -2.084,2.083c0,1.15 0.934,2.084 2.084,2.084Z" style="fill:#fff;"/></g></svg>