<?xml version="1.0" encoding="UTF-8" standalone="no"?><!DOCTYPE svg PUBLIC "-//W3C//DTD SVG 1.1//EN" "http://www.w3.org/Graphics/SVG/1.1/DTD/svg11.dtd"><svg width="100%" height="100%" viewBox="0 0 214 214" version="1.1" xmlns="http://www.w3.org/2000/svg" xmlns:xlink="http://www.w3.org/1999/xlink" xml:space="preserve" xmlns:serif="http://www.serif.com/" style="fill-rule:evenodd;clip-rule:evenodd;stroke-linecap:round;stroke-linejoin:round;stroke-miterlimit:1.5;"><g id="imressum"><circle cx="106.679" cy="106.679" r="102.512" style="fill:#f00;stroke:#f00;stroke-width:8.33px;"/><path d="M132.465,107.53c0,6.906 -2.971,13.244 -8.913,19.015c4.35,5.108 6.526,10.5 6.526,16.176c-0,7 -2.574,12.865 -7.72,17.595c-5.147,4.73 -11.54,7.095 -19.181,7.095c-6.261,-0 -11.407,-1.537 -15.44,-4.612c-4.032,-3.074 -6.049,-6.929 -6.049,-11.564c0,-3.122 0.955,-5.605 2.866,-7.45c1.91,-1.845 4.456,-2.767 7.64,-2.767c2.335,0 4.377,0.71 6.128,2.129c1.751,1.419 2.627,3.074 2.627,4.966c-0,3.689 -3.661,5.723 -10.983,6.102c-2.335,0.094 -3.502,0.567 -3.502,1.418c-0,2.365 1.724,4.518 5.173,6.457c3.449,1.939 7.295,2.909 11.54,2.909c10.293,-0 15.44,-5.25 15.44,-15.751c0,-4.73 -1.114,-8.703 -3.343,-11.919c-2.228,-3.217 -6.367,-6.811 -12.415,-10.784c-9.126,-6.055 -14.857,-10.406 -17.191,-13.055c-3.184,-3.595 -4.775,-7.994 -4.775,-13.196c-0,-6.338 3.077,-12.818 9.232,-19.44c-3.608,-4.257 -5.412,-8.751 -5.412,-13.481c-0,-6.432 2.308,-11.611 6.924,-15.537c4.616,-3.926 10.691,-5.889 18.225,-5.889c6.155,-0 11.169,1.443 15.043,4.328c3.873,2.885 5.809,6.645 5.809,11.281c0,5.77 -2.918,8.655 -8.754,8.655c-5.518,0 -8.277,-2.128 -8.277,-6.385c-0,-2.176 0.689,-3.689 2.069,-4.541c1.38,-0.851 4.085,-1.371 8.118,-1.561c0.955,0 1.433,-0.378 1.433,-1.135c-0,-2.081 -1.539,-3.949 -4.617,-5.605c-3.077,-1.655 -6.526,-2.483 -10.346,-2.483c-4.457,0 -8.012,1.183 -10.665,3.548c-2.653,2.365 -3.979,5.534 -3.979,9.507c-0,3.784 1.22,7.165 3.661,10.145c2.441,2.98 6.951,6.599 13.53,10.855c7.428,4.825 12.362,8.987 14.803,12.487c3.184,4.447 4.775,8.609 4.775,12.487Zm-5.889,7.663c-0,-5.392 -5.253,-11.636 -15.758,-18.731c-2.017,-1.419 -5.041,-3.5 -9.073,-6.243c-0.319,-0.189 -1.168,-0.804 -2.547,-1.845l-7.004,-5.534l-0.637,0.71c-2.547,2.838 -3.82,6.054 -3.82,9.649c0,4.162 2.706,8.419 8.118,12.77c2.441,1.987 8.171,6.149 17.191,12.487c1.273,0.852 4.032,2.933 8.277,6.244c3.502,-3.595 5.253,-6.764 5.253,-9.507Z" style="fill:#fff;fill-rule:nonzero;"/></g></svg>