<?xml version="1.0" encoding="UTF-8" standalone="no"?><!DOCTYPE svg PUBLIC "-//W3C//DTD SVG 1.1//EN" "http://www.w3.org/Graphics/SVG/1.1/DTD/svg11.dtd"><svg width="100%" height="100%" viewBox="0 0 214 214" version="1.1" xmlns="http://www.w3.org/2000/svg" xmlns:xlink="http://www.w3.org/1999/xlink" xml:space="preserve" xmlns:serif="http://www.serif.com/" style="fill-rule:evenodd;clip-rule:evenodd;stroke-linecap:round;stroke-linejoin:round;stroke-miterlimit:1.5;"><g id="Link"><circle cx="106.679" cy="106.679" r="102.512" style="fill:#f00;stroke:#f00;stroke-width:8.33px;"/><path d="M148.025,65.333c-8.773,-8.774 -22.997,-8.774 -31.771,-0l-18.776,18.776c-9.075,9.075 -8.235,23.536 0,31.771c1.379,1.379 2.905,2.503 4.516,3.427l3.427,-3.427c2.248,-2.248 1.456,-4.876 1.416,-6.772c-0.493,-0.35 -0.973,-0.728 -1.416,-1.171c-4.226,-4.225 -4.416,-11.469 -0,-15.885c0.656,-0.656 18.378,-18.378 18.776,-18.776c4.38,-4.381 11.505,-4.381 15.885,-0c4.381,4.38 4.381,11.505 0,15.885l-12.411,12.411c0.359,1.986 2.513,6.69 1.405,14.449c0.054,-0.053 0.119,-0.087 0.173,-0.141l18.776,-18.776c8.774,-8.774 8.774,-22.998 0,-31.771Z" style="fill:#fff;fill-rule:nonzero;"/><path d="M117.335,96.023c-1.379,-1.379 -2.905,-2.503 -4.516,-3.427l-3.427,3.427c-2.248,2.248 -1.457,4.876 -1.416,6.772c0.493,0.35 0.973,0.728 1.416,1.171c4.226,4.226 4.416,11.469 0,15.885c-0.657,0.657 -19.847,19.847 -20.231,20.231c-4.381,4.381 -11.505,4.381 -15.886,0c-4.38,-4.38 -4.38,-11.505 0,-15.885l13.867,-13.866c-0.359,-1.986 -2.513,-6.69 -1.405,-14.45c-0.054,0.054 -0.119,0.088 -0.173,0.142l-20.231,20.231c-8.774,8.774 -8.774,22.998 -0,31.771c8.773,8.774 22.997,8.774 31.77,0l20.232,-20.231c8.907,-8.907 8.42,-23.351 -0,-31.771Z" style="fill:#fff;fill-rule:nonzero;"/></g></svg>