<?xml version="1.0" encoding="UTF-8" standalone="no"?><!DOCTYPE svg PUBLIC "-//W3C//DTD SVG 1.1//EN" "http://www.w3.org/Graphics/SVG/1.1/DTD/svg11.dtd"><svg width="100%" height="100%" viewBox="0 0 465 364" version="1.1" xmlns="http://www.w3.org/2000/svg" xmlns:xlink="http://www.w3.org/1999/xlink" xml:space="preserve" xmlns:serif="http://www.serif.com/" style="fill-rule:evenodd;clip-rule:evenodd;stroke-linejoin:round;stroke-miterlimit:2;"><g><path d="M47.396,88.129c-9.602,10.21 -9.754,20.018 -0.232,29.414c-19.955,-0.129 -27.356,20.486 -14.403,32.283l0.069,15.175c-58.646,30.482 -30.597,104.391 44.914,92.422c-8.908,8.314 -14.699,18.418 -17.54,30.215c-15.35,8.22 -16.091,27.993 3.136,34.715c16.917,35.18 55.398,44.842 87.334,35.891c43.77,-12.267 81.939,-41.265 113.133,-57.348c24.591,-12.679 57.476,-25.293 79.031,-29.899c-2.035,5.945 -2.688,11.71 -1.796,17.273c-8.993,20.099 -0.17,31.625 20.21,29.505c16.778,9.293 36.163,10.544 58.851,1.604c2.868,-0.007 5.644,-0.624 8.253,-2.325c43.026,-25.971 42.553,-68.836 10.719,-94.81c-6.731,-5.227 -12.951,-8.349 -18.492,-8.669c0.214,-3.178 -0.232,-6.184 -1.368,-9.011c0.447,-19.759 -8.394,-26.201 -23.28,-23.979l-0.16,-10.55c1.692,-2.067 2.861,-4.378 3.42,-6.977c16.355,-9.109 25.729,-22.786 28.499,-40.784c24.958,-11.426 34.66,-31.698 30.059,-60.265c10.443,-15.674 2.072,-31.101 -14.114,-31.053c-11.238,-13.13 -21.892,-20.334 -32.007,-22.055c-25.667,-11.707 -56.123,-6.773 -82.553,0.892c-41.243,11.96 -110.57,44.132 -164.32,69.568c0.1,-78.776 -120.255,-65.842 -117.363,8.768Z" style="fill:url(#_Linear1);"/><g><g id="Hellas"><g><path d="M114.507,221.225c-4.226,0 -8.738,0.402 -13.394,1.263c-1.934,0.345 -4.011,0.747 -6.231,1.264l-3.009,0.689l-3.008,0.746c-3.653,0.919 -6.589,1.608 -8.666,2.01l-0,-0.402c-0,-1.78 -0.932,-3.617 -2.794,-5.398c-0.071,0.517 -0.286,1.206 -0.644,1.953c-0.43,0.861 -1.003,1.665 -1.791,2.412c-1.934,2.01 -4.512,3.158 -7.664,3.445c-2.65,0.23 -5.3,0.345 -7.95,0.345c-6.661,-0 -12.32,-1.895 -17.047,-5.685c-4.727,-3.79 -7.091,-8.327 -7.091,-13.668c0,-4.306 1.433,-8.211 4.369,-11.829c2.794,-3.503 6.518,-6.202 11.174,-8.04l-0,19.869c-0,2.297 1.002,4.25 3.008,5.858c2.077,1.608 4.512,2.412 7.306,2.412l12.104,-0c-2.578,-0.977 -4.44,-2.757 -5.586,-5.398c-0.932,-2.01 -1.361,-4.365 -1.361,-7.064l-0,-17.801c12.033,0.516 20.413,3.215 25.068,8.154c-0.358,-4.709 -2.936,-8.901 -7.663,-12.633c-4.799,-3.733 -10.601,-5.915 -17.405,-6.547l-0,-29.114c-0,-2.699 0.429,-5.054 1.361,-7.064c1.146,-2.641 3.008,-4.422 5.586,-5.398l-9.741,0c-2.077,0 -3.796,0.919 -5.157,2.757c-1.002,-1.838 -2.721,-2.757 -5.157,-2.757l-9.239,0c2.507,0.976 4.369,2.757 5.586,5.398c0.86,2.01 1.29,4.365 1.29,7.064l-0,30.148c-9.097,1.895 -16.474,5.513 -22.061,10.968c-5.945,5.8 -8.953,12.806 -8.953,21.017c0,9.131 4.011,16.596 11.962,22.281c7.52,5.398 16.76,8.097 27.647,8.097c6.159,0 12.319,-0.516 18.551,-1.55c2.435,-0.402 5.013,-0.919 7.807,-1.551l3.652,-0.861l3.51,-0.861c9.455,-2.297 16.689,-3.446 21.631,-3.446c3.653,0 6.876,0.689 9.741,2.125c3.008,1.493 5.157,3.56 6.374,6.144c1.361,-2.239 2.077,-4.421 2.077,-6.546c0,-2.469 -1.002,-4.824 -3.008,-7.006c-3.509,-3.847 -8.523,-5.8 -15.184,-5.8Z" style="fill:#ebdecc;"/><path d="M126.611,222.776c2.149,1.148 3.868,2.584 5.229,4.249c1.647,2.182 2.507,4.479 2.507,6.948c-0,1.666 -0.358,3.389 -1.146,5.169c0.358,0.517 0.644,0.976 0.859,1.435c1.361,-2.182 2.006,-4.307 2.006,-6.431c-0,-1.436 -0.358,-2.871 -1.003,-4.307c-1.504,-3.158 -4.297,-5.513 -8.452,-7.063Z" style="fill:#a98862;"/><path d="M23.615,210.199c-0,8.901 3.868,16.022 11.603,21.42c7.019,4.881 15.543,7.408 25.57,7.58l-1.003,0c-10.17,0 -18.837,-2.469 -25.999,-7.35c-7.951,-5.456 -11.89,-12.634 -11.89,-21.65c-0,-7.58 2.65,-14.126 8.022,-19.581c5.3,-5.456 12.534,-9.188 21.702,-11.084c0.86,-0.172 1.289,-0.574 1.289,-1.32l0,-30.148c0,-1.953 -0.214,-3.791 -0.716,-5.456c-0.644,-2.297 -1.647,-4.192 -3.08,-5.628l1.719,0c1.433,1.436 2.507,3.331 3.152,5.628c0.43,1.665 0.644,3.503 0.644,5.456l0,30.148c0,0.746 -0.429,1.148 -1.289,1.32c-9.168,1.896 -16.402,5.628 -21.702,11.084c-5.372,5.455 -8.022,12.001 -8.022,19.581Z" style="fill:#cebc9a;"/><path d="M115.868,230.93l0.788,-0c5.944,-0 10.815,1.665 14.468,4.939c-0.072,0.459 -0.215,0.918 -0.358,1.378c-3.367,-3.963 -8.38,-6.087 -14.898,-6.317Z" style="fill:#cebc9a;"/><path d="M69.67,230.585c-2.794,0.23 -5.515,0.345 -8.166,0.345l-0.573,-0.057c2.436,-0.058 4.728,-0.115 6.948,-0.288c2.507,-0.229 4.799,-0.976 6.733,-2.182c1.504,-0.976 2.793,-2.239 3.724,-3.732c0.215,0.516 0.43,1.091 0.502,1.608c-2.292,2.526 -5.372,3.962 -9.168,4.306Z" style="fill:#cebc9a;"/><path d="M81.559,228.461c2.149,-0.46 4.871,-1.091 8.237,-1.953l2.937,-0.689l3.008,-0.746c2.22,-0.517 4.226,-0.919 6.088,-1.206c4.656,-0.862 9.025,-1.264 13.108,-1.264l0.644,0.058c-3.939,0.057 -8.093,0.517 -12.534,1.263c-2.722,0.517 -6.59,1.378 -11.532,2.584c-3.509,0.862 -6.446,1.551 -8.738,2.068l-0.43,-0c-0.215,-0 -0.501,-0.058 -0.788,-0.115Z" style="fill:#cebc9a;"/><path d="M38.728,210.199c-0,-7.063 3.438,-12.805 10.314,-17.227l-0,-0.287c-3.796,1.895 -6.733,4.422 -8.882,7.465c-2.077,3.101 -3.151,6.432 -3.151,10.049c-0,3.446 1.146,6.604 3.438,9.533c2.22,2.814 5.157,4.996 8.881,6.489c-3.223,-1.78 -5.801,-4.02 -7.735,-6.833c-1.934,-2.872 -2.865,-5.915 -2.865,-9.189Z" style="fill:#a98862;"/><path d="M80.557,222.661c0.573,0.919 1.002,1.837 1.217,2.756l1.576,-0.344c-0.501,-1.321 -1.289,-2.527 -2.507,-3.676c0,0.402 -0.071,0.804 -0.286,1.264Z" style="fill:#a98862;"/><path d="M93.807,148.066l0,57.941c0,2.699 -0.43,5.054 -1.289,7.064c-1.146,2.641 -3.008,4.421 -5.587,5.398l9.741,-0c2.077,-0 3.796,-0.919 5.157,-2.757c1.003,1.838 2.722,2.757 5.157,2.757l9.24,-0c-2.507,-0.977 -4.369,-2.757 -5.587,-5.398c-0.859,-2.01 -1.289,-4.365 -1.289,-7.064l-0,-57.941c-0,-2.699 0.43,-5.054 1.289,-7.064c1.218,-2.641 3.08,-4.422 5.587,-5.398l-9.741,0c-2.077,0 -3.796,0.919 -5.157,2.757c-1.003,-1.838 -2.722,-2.757 -5.157,-2.757l-9.24,0c2.579,0.976 4.441,2.757 5.587,5.398c0.859,2.01 1.289,4.365 1.289,7.064Z" style="fill:#ebdecc;"/><path d="M112.788,206.007l-0,-57.941c-0,-2.24 0.286,-4.307 0.931,-6.088c0.788,-2.354 2.077,-4.077 3.868,-5.283c-0.358,0.058 -0.573,0.115 -0.645,0.173c-2.292,0.861 -3.939,2.584 -4.942,5.283c-0.358,0.976 -0.573,2.067 -0.788,3.273c-0.072,0.861 -0.143,1.78 -0.143,2.642l-0,57.941c-0,0.862 0.071,1.781 0.143,2.642c0.215,1.206 0.43,2.297 0.788,3.273c1.003,2.699 2.65,4.422 4.942,5.283l0.788,0.287c-1.791,-1.205 -3.152,-2.986 -4.011,-5.34c-0.645,-1.838 -0.931,-3.905 -0.931,-6.145Z" style="fill:#a98862;"/><path d="M69.741,206.007l0,-16.193l-1.719,-0.173l0,16.366c0,0.862 0.072,1.781 0.144,2.642c0.143,1.206 0.429,2.297 0.787,3.273c0.932,2.699 2.579,4.422 4.943,5.283c0.071,0.058 0.286,0.115 0.644,0.173c-1.79,-1.206 -3.08,-2.929 -3.868,-5.283c-0.644,-1.781 -0.931,-3.848 -0.931,-6.088Z" style="fill:#a98862;"/><path d="M53.841,189.182c0.501,0.287 0.787,0.632 0.787,1.148l0,19.869c0,1.896 0.86,3.561 2.507,4.882c1.719,1.32 3.725,2.01 6.088,2.01l-1.719,-0c-2.363,-0 -4.369,-0.69 -6.088,-2.01c-1.647,-1.321 -2.507,-2.986 -2.507,-4.882l0,-19.869c0,-0.516 -0.286,-0.861 -0.787,-1.148l-0.072,-0l0.143,-0.058c0.215,-0.114 0.43,-0.172 0.716,-0.172c0.359,0 0.645,0.058 0.932,0.23Z" style="fill:#cebc9a;"/><path d="M105.554,215.138l-0,0.057l0.071,0.058c0.072,0.057 0.072,0.172 0.144,0.23c0.214,0.287 0.429,0.516 0.644,0.689c0.788,0.631 1.648,0.919 2.722,0.919l-1.719,-0c-1.074,-0 -1.934,-0.288 -2.722,-0.919c-0.215,-0.173 -0.43,-0.402 -0.644,-0.689c-0.072,-0.058 -0.072,-0.173 -0.144,-0.23l-0.071,-0.058l-0,-0.057c-0.144,-0.287 -0.358,-0.459 -0.717,-0.632c0.215,-0.114 0.502,-0.172 0.86,-0.172l0.072,0c0.716,0.058 1.217,0.287 1.504,0.804Z" style="fill:#cebc9a;"/><path d="M97.675,148.066l-0,57.941c-0,1.953 -0.215,3.791 -0.645,5.456c-0.644,2.297 -1.647,4.192 -3.08,5.628l-1.719,-0c1.433,-1.436 2.436,-3.331 3.08,-5.628c0.43,-1.665 0.645,-3.503 0.645,-5.456l-0,-57.941c-0,-1.953 -0.215,-3.791 -0.645,-5.456c-0.644,-2.297 -1.647,-4.192 -3.08,-5.628l1.719,0c1.433,1.436 2.436,3.331 3.08,5.628c0.43,1.665 0.645,3.503 0.645,5.456Z" style="fill:#cebc9a;"/><path d="M79.769,179.592c6.374,3.216 10.457,7.465 12.319,12.691l0,-3.159c-2.65,-4.077 -6.804,-7.293 -12.319,-9.532Z" style="fill:#a98862;"/><path d="M67.951,186.885l0.501,-0.058l0.072,0c8.022,0.288 14.611,1.723 19.84,4.193l0.573,1.205c-5.086,-3.043 -12.105,-4.823 -20.986,-5.34Z" style="fill:#cebc9a;"/><path d="M68.022,148.066l0,27.908l1.719,0.287l0,-28.195c0,-2.24 0.287,-4.307 0.931,-6.145c0.86,-2.354 2.221,-4.135 4.011,-5.341l-0.787,0.288c-2.364,0.861 -4.011,2.584 -4.943,5.283c-0.358,0.976 -0.644,2.067 -0.787,3.273c-0.072,0.861 -0.144,1.78 -0.144,2.642Z" style="fill:#a98862;"/><path d="M60.43,139.739l-0.072,-0c-0.286,-0 -0.573,-0.058 -0.787,-0.172c0.214,-0.115 0.429,-0.288 0.644,-0.517c0.072,-0.173 0.287,-0.345 0.502,-0.574c0.286,-0.23 0.573,-0.46 0.859,-0.69c0.788,-0.516 1.504,-0.804 2.292,-0.804l1.719,0c-0.788,0 -1.504,0.288 -2.292,0.804c-0.286,0.23 -0.573,0.46 -0.859,0.69c-0.215,0.229 -0.359,0.401 -0.502,0.574c-0.358,0.459 -0.859,0.689 -1.504,0.689Z" style="fill:#cebc9a;"/><path d="M102.689,139.567c0.215,-0.115 0.429,-0.288 0.573,-0.517c0.143,-0.173 0.286,-0.345 0.501,-0.574c0.287,-0.23 0.573,-0.46 0.86,-0.69c0.787,-0.516 1.575,-0.804 2.363,-0.804l1.719,0c-0.788,0 -1.576,0.288 -2.363,0.804c-0.287,0.23 -0.573,0.46 -0.86,0.69c-0.215,0.229 -0.358,0.401 -0.501,0.574c-0.358,0.459 -0.86,0.689 -1.504,0.689l-0.072,-0c-0.215,-0 -0.501,-0.058 -0.716,-0.172Z" style="fill:#cebc9a;"/></g><g><path d="M159.828,197.758l0,-7.408c-0.994,2.344 -2.806,4.34 -5.553,6.021c-2.046,1.315 -4.384,2.308 -7.131,3.071l-7.072,1.964c-0.76,0.211 -1.462,0.118 -1.988,-0.31c-0.526,-0.371 -0.818,-0.979 -0.818,-1.725l-0,-9.705c-0,-3.847 1.929,-7.484 5.845,-10.926c2.864,-2.46 5.845,-4.149 9.001,-5.026c1.111,-0.308 2.222,-0.501 3.391,-0.654c-2.163,-2.27 -4.91,-3.46 -8.3,-3.495c-1.695,-0.046 -3.391,0.195 -5.144,0.681c-1.578,0.439 -3.156,1.049 -4.793,1.905l-0,-14.184c-0,-0.746 0.292,-1.516 0.818,-2.179c0.526,-0.663 1.228,-1.145 1.988,-1.356l7.072,-1.964c2.747,-0.762 5.085,-1.067 7.131,-0.946c2.747,0.214 4.559,1.204 5.553,2.938l0,-7.408c0,-1.953 -0.935,-3.071 -2.806,-3.356c2.046,-2.348 3.449,-4.46 4.209,-6.222l-25.894,7.189c-1.987,0.552 -3.39,1.86 -4.208,3.925c-1.111,-1.529 -2.514,-2.058 -4.209,-1.588l-7.949,2.207c2.045,0.409 3.565,1.767 4.559,4.19c0.701,1.815 1.052,4.015 1.052,6.714l-0,44.16c-0,2.699 -0.351,5.093 -1.052,7.298c-0.994,2.974 -2.514,5.177 -4.559,6.721l7.949,-2.207c1.695,-0.471 3.098,-1.779 4.209,-3.925c0.818,1.61 2.221,2.14 4.208,1.588l25.894,-7.189c-0.818,-1.324 -2.221,-2.599 -4.209,-3.828c1.871,-1.323 2.806,-2.961 2.806,-4.971Z" style="fill:#ebdecc;"/><path d="M127.738,159.234l0,44.16c0,1.953 -0.175,3.839 -0.526,5.602c-0.526,2.443 -1.344,4.565 -2.513,6.325l-1.403,0.39c1.169,-1.761 1.987,-3.883 2.513,-6.326c0.351,-1.763 0.527,-3.649 0.527,-5.601l-0,-44.16c-0,-1.953 -0.176,-3.684 -0.527,-5.252c-0.526,-2.151 -1.344,-3.819 -2.513,-4.987l1.403,-0.39c1.169,1.169 1.987,2.836 2.513,4.987c0.351,1.568 0.526,3.3 0.526,5.252Z" style="fill:#cebc9a;"/><path d="M134.168,210.74l-0,0.057l0.058,0.041c0.059,0.042 0.059,0.156 0.117,0.198c0.176,0.181 0.351,0.362 0.526,0.543c0.643,0.453 1.345,0.545 2.222,0.302l-1.403,0.389c-0.877,0.244 -1.578,0.151 -2.221,-0.302c-0.176,-0.181 -0.351,-0.362 -0.527,-0.543c-0.058,-0.041 -0.058,-0.156 -0.116,-0.197l-0.059,-0.041l0,-0.058c-0.117,-0.254 -0.292,-0.378 -0.584,-0.469c0.175,-0.164 0.409,-0.286 0.701,-0.367l0.058,-0.016c0.585,-0.105 0.994,0.011 1.228,0.463Z" style="fill:#cebc9a;"/><path d="M159.828,201.95c1.87,-1.323 2.806,-2.961 2.806,-4.971l-0,-7.408c-0.351,0.844 -0.819,1.606 -1.403,2.4l-0,5.398c-0,0.976 -0.234,1.902 -0.643,2.82c-0.292,0.713 -0.76,1.359 -1.344,2.038c1.461,1.03 2.513,2.174 3.214,3.357c0.117,0.14 0.176,0.354 0.176,0.583l1.403,-0.389c-0.76,-1.34 -2.163,-2.616 -4.209,-3.828Z" style="fill:#a98862;"/><path d="M158.776,194.547l-0,0.919c-1.461,1.21 -3.156,2.255 -5.144,3.151c-1.461,0.693 -3.039,1.246 -4.734,1.716l-1.403,0.39c1.987,-0.552 3.858,-1.243 5.553,-2.116c2.338,-1.166 4.267,-2.505 5.728,-4.06Z" style="fill:#cebc9a;"/><path d="M138.669,189.277l-0,9.704c-0,0.402 0.117,0.657 0.409,0.863c0.292,0.206 0.584,0.297 0.994,0.184l0.409,-0.114c-0.293,-0.378 -0.409,-0.805 -0.409,-1.322l-0,-9.705c-0,-3.56 1.753,-6.976 5.202,-10.288c-4.384,3.285 -6.605,6.83 -6.605,10.678Z" style="fill:#a98862;"/><path d="M152.288,169.014c1.695,0.621 3.098,1.61 4.325,2.934c0.176,0.124 0.234,0.28 0.292,0.551l1.403,-0.218c-1.636,-1.727 -3.624,-2.841 -6.02,-3.267Z" style="fill:#a98862;"/><path d="M138.669,170.097l1.403,-0.562l-0,-12.347c-0,-0.516 0.116,-1.008 0.409,-1.491l-0.409,0.113c-0.41,0.114 -0.702,0.31 -0.994,0.678c-0.292,0.368 -0.409,0.688 -0.409,1.09l-0,12.519Z" style="fill:#a98862;"/><path d="M161.231,146.662l-0,5.398c0.584,0.47 1.052,0.972 1.403,1.621l-0,-7.408c-0,-1.953 -0.936,-3.071 -2.806,-3.356c2.046,-2.348 3.449,-4.46 4.209,-6.222l-1.403,0.39c-0,0.23 -0.059,0.475 -0.176,0.68c-0.701,1.631 -1.753,3.301 -3.214,5.142c0.584,0.355 1.052,0.799 1.344,1.35c0.409,0.633 0.643,1.429 0.643,2.405Z" style="fill:#a98862;"/><path d="M147.495,150.993l1.403,-0.39c1.695,-0.47 3.273,-0.794 4.734,-0.912c1.988,-0.207 3.683,-0.104 5.144,0.294l-0,0.862c-1.461,-0.686 -3.39,-1.011 -5.728,-0.879c-1.695,0.126 -3.566,0.473 -5.553,1.025Z" style="fill:#cebc9a;"/><path d="M132.94,149.463l-0.058,0.017c-0.292,0.081 -0.526,0.088 -0.701,0.022c0.292,-0.253 0.467,-0.474 0.584,-0.794l0,-0.057l0.059,-0.074c0.058,-0.074 0.058,-0.188 0.116,-0.262c0.176,-0.279 0.351,-0.557 0.527,-0.778c0.643,-0.81 1.344,-1.349 2.221,-1.593l1.403,-0.389c-0.877,0.243 -1.579,0.782 -2.222,1.593c-0.175,0.221 -0.35,0.499 -0.526,0.777c-0.058,0.074 -0.058,0.189 -0.117,0.263l-0.058,0.073l-0,0.058c-0.234,0.581 -0.643,0.925 -1.228,1.144Z" style="fill:#cebc9a;"/></g><g><path d="M170.831,146.728l-0,44.16c-0,2.699 -0.364,5.172 -1.09,7.534c-1.03,3.198 -2.604,5.742 -4.724,7.745l8.236,-3.992c1.756,-0.851 3.209,-2.474 4.36,-4.87c0.848,1.427 2.301,1.641 4.36,0.644l26.826,-13.004c-0.788,-1.169 -2.241,-2.129 -4.36,-2.882c1.937,-1.744 2.906,-3.591 2.906,-5.601l0,-7.408c-1.029,2.566 -2.906,4.969 -5.752,7.268c-2.12,1.773 -4.542,3.292 -7.388,4.672l-7.327,3.551c-0.787,0.382 -1.514,0.447 -2.059,0.137c-0.545,-0.253 -0.848,-0.795 -0.848,-1.542l0,-42.781c0,-2.699 0.363,-5.172 1.09,-7.535c1.03,-3.197 2.604,-5.741 4.723,-7.744l-8.235,3.992c-1.756,0.851 -3.21,2.474 -4.36,4.869c-0.848,-1.426 -2.301,-1.641 -4.36,-0.643l-7.812,3.787c2.12,-0.051 3.694,0.966 4.724,3.166c0.726,1.657 1.09,3.778 1.09,6.477Z" style="fill:#ebdecc;"/><path d="M174.101,145.143l-0,44.16c-0,1.953 -0.182,3.878 -0.545,5.72c-0.545,2.561 -1.393,4.867 -2.604,6.889l-1.454,0.705c1.151,-1.993 2.059,-4.329 2.604,-6.89c0.364,-1.841 0.545,-3.767 0.545,-5.719l0,-44.16c0,-1.953 -0.181,-3.645 -0.545,-5.134c-0.545,-2.033 -1.453,-3.488 -2.604,-4.423l1.454,-0.705c1.211,0.906 2.059,2.391 2.604,4.423c0.363,1.49 0.545,3.182 0.545,5.134Z" style="fill:#cebc9a;"/><path d="M180.762,195.205l-0,0.057l0.06,0.028c0.061,0.028 0.061,0.143 0.121,0.171c0.182,0.142 0.364,0.284 0.545,0.425c0.666,0.309 1.393,0.244 2.301,-0.196l-1.453,0.704c-0.908,0.44 -1.635,0.506 -2.301,0.197c-0.182,-0.142 -0.363,-0.284 -0.545,-0.425c-0.061,-0.028 -0.061,-0.143 -0.121,-0.171l-0.061,-0.028l0,-0.058c-0.121,-0.228 -0.302,-0.312 -0.605,-0.338c0.181,-0.203 0.424,-0.378 0.726,-0.524l0.061,-0.03c0.606,-0.236 1.029,-0.212 1.272,0.188Z" style="fill:#cebc9a;"/><path d="M207.345,180.654c1.938,-1.743 2.907,-3.591 2.907,-5.601l-0,-7.408c-0.363,0.923 -0.848,1.789 -1.453,2.714l-0,5.398c-0,0.976 -0.243,1.955 -0.667,2.965c-0.302,0.778 -0.787,1.53 -1.392,2.34c1.514,0.702 2.604,1.609 3.33,2.635c0.121,0.114 0.182,0.314 0.182,0.544l1.453,-0.705c-0.787,-1.169 -2.24,-2.129 -4.36,-2.882Z" style="fill:#a98862;"/><path d="M185.424,139.654l0,42.782c0,0.919 0.485,1.143 1.454,0.674l0.363,-0.176c-0.242,-0.285 -0.363,-0.686 -0.363,-1.203l-0,-42.781c-0,-2.24 0.242,-4.367 0.787,-6.411c0.666,-2.678 1.756,-4.986 3.27,-6.926c-0.303,0.204 -0.485,0.35 -0.545,0.436c-1.938,1.801 -3.331,4.256 -4.178,7.366c-0.303,1.123 -0.545,2.332 -0.666,3.596c-0.061,0.891 -0.122,1.782 -0.122,2.643Z" style="fill:#a98862;"/><path d="M196.022,181.491l-1.454,0.705c2.059,-0.998 3.997,-2.11 5.753,-3.363c2.422,-1.691 4.42,-3.464 5.934,-5.346l0,0.919c-1.514,1.538 -3.27,2.963 -5.329,4.306c-1.513,1.021 -3.148,1.928 -4.904,2.779Z" style="fill:#cebc9a;"/><path d="M179.006,134.439l-0.061,0.029c-0.182,0.088 -0.424,0.148 -0.666,0.151c0.242,-0.232 0.424,-0.493 0.545,-0.724c0.121,-0.231 0.242,-0.519 0.424,-0.779c0.242,-0.405 0.484,-0.752 0.726,-1.042c0.667,-0.897 1.333,-1.507 1.938,-1.8l1.454,-0.705c-0.606,0.294 -1.272,0.904 -1.938,1.801c-0.242,0.29 -0.485,0.637 -0.727,1.041c-0.182,0.26 -0.303,0.549 -0.424,0.78c-0.303,0.549 -0.726,0.984 -1.271,1.248Z" style="fill:#cebc9a;"/></g><g><path d="M219.269,123.79l0,44.16c0,2.699 -0.356,5.181 -1.068,7.56c-1.01,3.223 -2.553,5.804 -4.632,7.858l8.075,-4.189c1.722,-0.893 3.147,-2.551 4.275,-4.974c0.832,1.407 2.257,1.586 4.275,0.539l26.303,-13.645c-0.772,-1.15 -2.197,-2.076 -4.275,-2.778c1.9,-1.79 2.85,-3.661 2.85,-5.671l0,-7.407c-1.009,2.591 -2.85,5.038 -5.64,7.405c-2.078,1.824 -4.453,3.401 -7.244,4.849l-7.184,3.726c-0.772,0.401 -1.485,0.483 -2.019,0.186c-0.534,-0.239 -0.831,-0.774 -0.831,-1.521l-0,-42.782c-0,-2.699 0.356,-5.18 1.068,-7.56c1.01,-3.223 2.554,-5.804 4.632,-7.858l-8.075,4.189c-1.722,0.893 -3.147,2.551 -4.275,4.974c-0.831,-1.406 -2.256,-1.586 -4.275,-0.539l-7.66,3.974c2.079,-0.102 3.622,0.877 4.632,3.053c0.712,1.64 1.068,3.752 1.068,6.451Z" style="fill:#ebdecc;"/><path d="M222.476,122.127l-0,44.16c-0,1.952 -0.178,3.882 -0.535,5.732c-0.534,2.575 -1.365,4.901 -2.553,6.952l-1.425,0.74c1.128,-2.021 2.019,-4.378 2.553,-6.952c0.357,-1.851 0.535,-3.781 0.535,-5.733l-0,-44.16c-0,-1.952 -0.178,-3.64 -0.535,-5.121c-0.534,-2.019 -1.425,-3.452 -2.553,-4.36l1.425,-0.74c1.188,0.877 2.019,2.341 2.553,4.361c0.357,1.481 0.535,3.168 0.535,5.121Z" style="fill:#cebc9a;"/><path d="M229.007,172.029l-0,0.058l0.059,0.026c0.06,0.027 0.06,0.142 0.119,0.168c0.178,0.138 0.356,0.275 0.534,0.412c0.653,0.293 1.366,0.211 2.257,-0.251l-1.425,0.739c-0.891,0.462 -1.604,0.544 -2.257,0.252c-0.178,-0.138 -0.356,-0.275 -0.534,-0.412c-0.059,-0.027 -0.059,-0.142 -0.119,-0.168l-0.059,-0.027l-0,-0.057c-0.119,-0.226 -0.297,-0.306 -0.594,-0.324c0.178,-0.207 0.416,-0.388 0.713,-0.542l0.059,-0.031c0.594,-0.25 1.009,-0.236 1.247,0.157Z" style="fill:#cebc9a;"/><path d="M255.072,156.842c1.9,-1.789 2.85,-3.66 2.85,-5.67l0,-7.408c-0.356,0.931 -0.831,1.81 -1.425,2.749l0,5.398c0,0.976 -0.237,1.961 -0.653,2.981c-0.297,0.785 -0.772,1.548 -1.365,2.373c1.484,0.666 2.553,1.547 3.265,2.556c0.119,0.11 0.178,0.309 0.178,0.539l1.425,-0.739c-0.772,-1.15 -2.197,-2.076 -4.275,-2.779Z" style="fill:#a98862;"/><path d="M233.579,116.367l-0,42.782c-0,0.919 0.475,1.132 1.425,0.639l0.356,-0.185c-0.238,-0.279 -0.356,-0.677 -0.356,-1.193l-0,-42.782c-0,-2.24 0.237,-4.373 0.772,-6.43c0.653,-2.693 1.721,-5.028 3.206,-7.004c-0.297,0.212 -0.475,0.361 -0.535,0.45c-1.9,1.847 -3.265,4.335 -4.096,7.465c-0.297,1.131 -0.535,2.345 -0.654,3.612c-0.059,0.893 -0.118,1.785 -0.118,2.646Z" style="fill:#a98862;"/><path d="M243.969,157.951l-1.425,0.739c2.019,-1.047 3.919,-2.205 5.641,-3.5c2.375,-1.749 4.334,-3.57 5.819,-5.488l-0,0.919c-1.485,1.574 -3.207,3.041 -5.225,4.433c-1.485,1.057 -3.088,2.004 -4.81,2.897Z" style="fill:#cebc9a;"/><path d="M227.285,111.305l-0.059,0.031c-0.178,0.093 -0.416,0.158 -0.653,0.167c0.237,-0.238 0.415,-0.503 0.534,-0.737c0.119,-0.234 0.237,-0.525 0.415,-0.79c0.238,-0.41 0.475,-0.763 0.713,-1.058c0.653,-0.914 1.306,-1.539 1.9,-1.847l1.425,-0.74c-0.594,0.308 -1.247,0.934 -1.9,1.847c-0.238,0.296 -0.475,0.649 -0.713,1.059c-0.178,0.265 -0.296,0.556 -0.415,0.79c-0.297,0.556 -0.713,1.001 -1.247,1.278Z" style="fill:#cebc9a;"/></g><g><path d="M284.51,82.527l-9.465,2.865c1.936,0.39 3.173,1.854 3.765,4.373c0.161,0.928 0.269,1.872 0.269,2.905c-0,1.264 -0.162,2.633 -0.431,4.093l-9.68,45.883c-1.882,6.829 -4.624,12.196 -8.228,16.158l7.744,-2.344c1.506,-0.456 2.797,-1.765 3.926,-3.945c0.161,1.789 1.022,2.448 2.581,1.976l9.035,-2.735c-1.936,-0.39 -3.173,-1.796 -3.764,-4.316c-0.215,-0.911 -0.323,-1.912 -0.323,-2.946c-0,-1.32 0.161,-2.69 0.484,-4.108c0.108,-0.435 0.269,-1.403 0.538,-2.92c4.947,-1.497 8.981,-1.339 12.1,0.473c-0.807,-6.015 -4.141,-9.485 -10.003,-10.353l5.485,-26.123c5.324,22.278 8.013,33.638 8.121,34.007c0.322,1.224 0.484,2.495 0.484,3.816c-0,1.034 -0.108,2.1 -0.323,3.141c-0.538,2.862 -1.775,5.017 -3.764,6.595l9.088,-2.75c1.56,-0.472 2.42,-1.652 2.581,-3.538c1.076,1.512 2.367,2.04 3.872,1.585l7.744,-2.344c-3.764,-1.904 -6.614,-5.98 -8.604,-12.327l-9.572,-38.908c-0.269,-1.239 -0.431,-2.454 -0.431,-3.66c0,-1.091 0.108,-2.215 0.323,-3.256c0.591,-2.821 1.828,-4.975 3.711,-6.521l-9.465,2.865c-1.56,0.472 -2.85,1.781 -3.872,3.928c-0.753,-1.61 -2.044,-2.138 -3.926,-1.569Z" style="fill:#ebdecc;"/><path d="M281.499,96.245l-9.627,45.81l-0.053,0.131c-1.56,5.525 -3.55,10.09 -6.077,13.726l-1.291,0.39c2.528,-3.636 4.517,-8.2 6.077,-13.726l0.054,-0.131l9.626,-45.81c0.376,-1.779 0.591,-3.337 0.591,-4.773c0,-2.641 -0.645,-4.743 -1.936,-6.247l1.291,-0.391c1.291,1.504 1.936,3.606 1.936,6.248c0,1.435 -0.215,2.993 -0.591,4.773Z" style="fill:#cebc9a;"/><path d="M275.26,151.481l0.269,0.837c0.269,0.321 0.592,0.453 1.076,0.306l-1.291,0.391c-0.484,0.146 -0.807,0.014 -1.075,-0.306l-0.269,-0.838c-0.054,-0.443 -0.269,-0.722 -0.646,-0.838c0.215,-0.18 0.431,-0.303 0.646,-0.368l0.322,-0.04c0.592,-0.064 0.915,0.24 0.968,0.856Z" style="fill:#cebc9a;"/><path d="M283.004,139.604c0.054,-0.188 0.108,-0.606 0.269,-1.287l-1.237,0.26c-0.053,0.418 -0.161,0.737 -0.215,0.983c-0.054,0.361 -0.107,0.607 -0.107,0.779c-0.215,0.87 -0.323,1.763 -0.377,2.756c-0.054,0.418 -0.054,0.763 -0.054,1.107c0,0.747 0.054,1.42 0.162,2.019c0.376,2.413 1.452,3.752 3.119,4.109l0.269,0.091l0.376,0.059c-1.344,-0.8 -2.151,-2.393 -2.474,-4.65c-0.107,-0.714 -0.161,-1.501 -0.161,-2.248c0,-1.263 0.161,-2.576 0.43,-3.978Z" style="fill:#a98862;"/><path d="M299.568,134.247c0.376,1.551 0.537,2.996 0.537,4.431c0,2.642 -0.645,5.134 -1.882,7.403l-1.29,0.391c1.237,-2.269 1.882,-4.762 1.882,-7.403c-0,-1.436 -0.162,-2.88 -0.538,-4.431c-0.054,-0.214 -1.452,-5.878 -4.087,-17.082c-0.43,-1.765 -0.914,-3.858 -1.506,-6.148c-0.161,-0.755 -0.376,-1.724 -0.645,-2.848l-0.645,-2.504c-0.807,-3.546 -1.237,-5.311 -1.237,-5.368c-0.108,-0.37 -0.323,-0.592 -0.646,-0.666c0.215,-0.238 0.431,-0.36 0.646,-0.425c0.699,-0.212 1.129,0.002 1.29,0.7c0,0.057 0.431,1.822 1.237,5.368l0.646,2.504c0.268,1.124 0.484,2.093 0.645,2.848c0.591,2.29 1.075,4.383 1.506,6.148c2.635,11.205 4.033,16.869 4.087,17.082Z" style="fill:#cebc9a;"/><path d="M307.419,141.174c0.108,0.139 0.269,0.263 0.43,0.444c0.162,0.238 0.377,0.403 0.646,0.494c0.591,0.395 1.183,0.503 1.721,0.34l-1.291,0.391c-0.538,0.162 -1.129,0.054 -1.721,-0.341c-0.269,-0.091 -0.484,-0.255 -0.645,-0.494c-0.162,-0.181 -0.323,-0.304 -0.43,-0.444c-0.108,-0.139 -0.269,-0.263 -0.431,-0.329l0.323,-0.212l0.323,-0.155c0.484,-0.147 0.806,-0.015 1.075,0.306Z" style="fill:#cebc9a;"/><path d="M310.377,128.851l-9.626,-38.892c-0.269,-1.182 -0.43,-2.397 -0.43,-3.66c-0,-0.747 0.053,-1.509 0.161,-2.289c0.323,-2.452 1.129,-4.419 2.474,-6.031l-0.377,0.228l-0.269,0.197c-1.667,1.366 -2.689,3.34 -3.065,5.923c-0.161,0.738 -0.215,1.501 -0.215,2.248c-0,0.287 -0,0.631 0.054,0.96c0.053,0.902 0.161,1.731 0.376,2.527l9.573,38.909c1.828,5.993 4.517,9.888 8.12,11.669c0.215,0.107 0.807,0.272 1.775,0.554c-3.765,-1.905 -6.615,-5.981 -8.551,-12.343Z" style="fill:#a98862;"/><path d="M286.822,127.021c4.034,1.651 6.508,4.807 7.422,9.469c0.538,0.239 1.022,0.437 1.398,0.668c-0.699,-5.589 -3.657,-8.943 -8.82,-10.137Z" style="fill:#a98862;"/><path d="M282.413,135.706l0.161,-0.106l0.108,-0.033c2.957,-0.895 5.754,-1.167 8.389,-0.816l0.323,0.649c-2.689,-0.622 -5.701,-0.514 -8.981,0.306Z" style="fill:#cebc9a;"/><path d="M288.543,107.435l-3.979,18.892l1.129,0.289l3.496,-16.735c-0.269,-0.952 -0.484,-1.748 -0.646,-2.446Z" style="fill:#a98862;"/><path d="M290.049,84.986l-0.107,0.032c-0.162,0.049 -0.377,0.057 -0.538,-0.009c0.161,-0.164 0.322,-0.385 0.43,-0.59c0.108,-0.205 0.269,-0.483 0.43,-0.704c0.162,-0.336 0.377,-0.631 0.592,-0.868c0.591,-0.754 1.183,-1.22 1.774,-1.399l1.291,-0.391c-0.591,0.18 -1.183,0.646 -1.775,1.399c-0.215,0.237 -0.43,0.532 -0.591,0.868c-0.161,0.221 -0.323,0.5 -0.43,0.705c-0.215,0.467 -0.592,0.81 -1.076,0.957Z" style="fill:#cebc9a;"/></g><g><path d="M326.286,101.113c-6.537,5.645 -9.842,11.693 -9.842,18.144c-0,9.446 4.526,17.625 13.506,24.479c8.908,6.739 19.397,10.137 31.394,10.137c11.998,0 22.486,-3.398 31.395,-10.137c9.052,-6.854 13.578,-15.033 13.578,-24.479c-0,-10.771 -4.742,-19.641 -14.225,-26.668c-3.52,-2.65 -7.974,-5.184 -13.219,-7.546c-2.011,-0.921 -4.31,-1.901 -6.824,-2.88c-0.934,-0.403 -2.084,-0.806 -3.377,-1.324l-1.58,-0.576l-1.581,-0.634c-5.891,-2.246 -9.986,-4.205 -12.285,-5.76c-2.658,-1.785 -3.951,-3.744 -3.951,-5.875c0,-2.822 0.862,-5.069 2.658,-6.854c1.94,-1.901 4.454,-2.88 7.687,-2.88c3.377,0 6.178,0.979 8.549,2.88c2.371,1.901 3.592,4.147 3.592,6.854c0,2.362 -1.006,4.493 -2.945,6.278c4.669,0 8.261,-1.382 10.92,-4.204c2.011,-2.189 3.017,-4.666 3.017,-7.488c-0,-0.634 -0.072,-1.21 -0.144,-1.843c-0.503,-3.744 -2.658,-6.854 -6.322,-9.331c-4.167,-2.823 -9.698,-4.205 -16.667,-4.205c-7.112,0 -13.219,2.016 -18.319,6.106c-5.029,4.031 -7.544,8.927 -7.544,14.687c0,5.184 2.73,9.619 8.118,13.363c2.156,1.497 4.886,2.995 8.262,4.493c1.365,0.576 2.874,1.209 4.67,1.9l4.741,1.901c10.561,4.032 17.745,7.545 21.624,10.483c6.394,4.896 9.555,11.232 9.555,19.123c0,6.508 -2.873,12.038 -8.621,16.645c-5.675,4.608 -12.644,6.912 -20.762,6.912c-8.118,0 -15.014,-2.304 -20.762,-6.912c-5.675,-4.607 -8.549,-10.137 -8.549,-16.645c0,-4.205 1.868,-7.834 5.532,-10.771c3.736,-2.995 8.19,-4.493 13.434,-4.493c3.377,0 6.179,0.922 8.549,2.822c2.371,1.901 3.52,4.205 3.52,6.855c0,1.555 -0.646,2.937 -2.011,4.031c-1.365,1.095 -3.089,1.671 -5.029,1.671c1.365,1.67 3.305,2.764 5.676,3.34c1.077,0.231 2.083,0.346 3.161,0.346c1.221,0 2.514,-0.173 3.735,-0.461c2.371,-0.633 4.383,-1.67 5.891,-3.168c1.653,-1.612 2.443,-3.513 2.443,-5.759c-0,-5.703 -2.515,-10.599 -7.615,-14.688c-5.101,-4.032 -11.208,-6.048 -18.32,-6.048c-4.669,0 -9.339,0.807 -13.865,2.362c-0.503,-1.21 -1.509,-2.362 -3.089,-3.456c-1.437,-0.979 -3.017,-1.671 -4.742,-2.016c0.36,0.461 0.647,1.094 0.862,1.843c0.144,0.576 0.216,1.152 0.216,1.786c-0,0.288 -0,0.633 -0.072,0.921c-0.287,2.477 -1.652,4.723 -4.023,6.739Z" style="fill:#ebdecc;"/><path d="M319.892,119.257c0,8.87 4.167,16.588 12.572,23.154c8.334,6.509 18.248,9.907 29.742,10.08l-0.862,-0c-11.71,-0 -21.839,-3.283 -30.388,-9.85c-8.549,-6.623 -12.788,-14.399 -12.788,-23.384c0,-3.399 1.006,-6.739 3.089,-10.023c1.581,-2.476 3.664,-4.895 6.322,-7.142c3.017,-2.592 4.526,-5.414 4.526,-8.582c0,-0.403 0,-0.806 -0.072,-1.209c0.647,0.403 1.222,0.806 1.796,1.209c-0.072,3.168 -1.58,6.048 -4.526,8.582c-2.658,2.247 -4.741,4.666 -6.322,7.142c-2.083,3.284 -3.089,6.624 -3.089,10.023Z" style="fill:#cebc9a;"/><path d="M381.101,84.467c8.046,3.859 14.224,8.122 18.534,12.902c5.604,6.163 8.406,13.478 8.406,21.888c-0,6.047 -1.94,11.807 -5.891,17.221c-3.808,5.242 -8.98,9.562 -15.518,12.845c6.969,-3.053 12.501,-7.2 16.667,-12.441c4.311,-5.472 6.466,-11.347 6.466,-17.625c-0,-8.583 -3.017,-16.013 -9.052,-22.176c-4.454,-4.55 -10.992,-8.755 -19.612,-12.614Z" style="fill:#a98862;"/><path d="M362.063,88.384l5.891,2.304c2.227,0.864 4.095,1.728 5.747,2.477c4.239,1.9 7.687,3.916 10.345,5.99c6.753,5.184 10.13,11.865 10.13,20.102c-0,6.854 -3.018,12.729 -9.124,17.625c-6.035,4.896 -13.363,7.315 -21.984,7.315l-0.862,-0.058c8.406,-0.173 15.59,-2.707 21.409,-7.488c5.891,-4.896 8.836,-10.655 8.836,-17.394c0,-8.237 -3.376,-14.918 -10.129,-20.102c-2.658,-2.074 -6.107,-4.09 -10.345,-5.99c-1.653,-0.749 -3.592,-1.613 -5.748,-2.477l-5.962,-2.304c-8.406,-3.226 -14.081,-5.875 -17.17,-8.006c-5.101,-3.456 -7.615,-7.603 -7.615,-12.384c-0,-5.357 2.37,-9.964 7.04,-13.708c4.742,-3.802 10.417,-5.703 17.098,-5.703l1.006,0c-6.538,0.173 -12.069,2.132 -16.595,5.876c-4.526,3.743 -6.825,8.294 -6.825,13.535c-0,4.781 2.514,8.928 7.615,12.384c3.089,2.131 8.836,4.78 17.242,8.006Z" style="fill:#cebc9a;"/><path d="M335.482,119.257c-0,-5.299 2.73,-9.504 8.189,-12.557c-3.017,1.152 -5.388,2.822 -7.184,5.011c-1.796,2.304 -2.73,4.838 -2.73,7.546c0,4.204 1.365,8.121 4.167,11.75c2.73,3.456 6.394,6.105 10.992,8.006c-4.095,-2.131 -7.4,-4.954 -9.77,-8.352c-2.443,-3.513 -3.664,-7.315 -3.664,-11.404Z" style="fill:#a98862;"/><path d="M366.229,95.18c3.808,2.016 6.754,4.666 8.981,7.834c2.298,3.341 3.448,6.912 3.448,10.656c-0,3.628 -1.796,6.451 -5.316,8.524c4.669,-1.613 7.04,-4.435 7.04,-8.524c0,-3.975 -1.293,-7.603 -3.951,-10.944c-2.515,-3.283 -5.963,-5.76 -10.202,-7.546Z" style="fill:#a98862;"/><path d="M366.589,113.67c-0,1.44 -0.503,2.764 -1.581,3.974c-1.006,1.209 -2.299,2.073 -3.951,2.592c0.79,0.461 1.58,0.806 2.443,1.037c0.718,0.172 1.508,0.288 2.298,0.345l-0.862,0.058c-0.934,-0 -1.796,-0.115 -2.586,-0.288c-1.078,-0.231 -2.083,-0.634 -3.017,-1.152c1.652,-0.519 2.945,-1.383 3.951,-2.592c1.006,-1.21 1.509,-2.534 1.509,-3.974c-0,-2.938 -1.222,-5.415 -3.736,-7.546c-2.514,-2.131 -5.532,-3.283 -9.196,-3.456l0.862,-0.057c3.808,-0 7.113,1.094 9.771,3.225c2.73,2.189 4.095,4.781 4.095,7.834Z" style="fill:#cebc9a;"/><path d="M339.577,96.563c-0.216,0.057 -0.503,0.115 -0.719,0.115c-0.215,0 -0.503,-0.058 -0.718,-0.115l-0.144,-0.058c4.239,-1.44 8.621,-2.188 13.003,-2.188l0.575,-0c-4.095,0.115 -8.046,0.863 -11.997,2.246Z" style="fill:#cebc9a;"/><path d="M338.068,93.51l1.078,-0.345c-1.222,-1.21 -2.802,-2.189 -4.742,-2.88c1.581,0.921 2.802,2.016 3.664,3.225Z" style="fill:#a98862;"/><path d="M352.723,67.994c0,-3.513 1.365,-6.163 4.024,-7.948c-1.94,0.518 -3.449,1.612 -4.455,3.167c-0.862,1.383 -1.293,2.996 -1.293,4.781c0,1.382 0.647,2.65 2.012,3.859c1.437,1.21 3.807,2.535 7.184,4.032c-4.957,-2.477 -7.472,-5.069 -7.472,-7.891Z" style="fill:#a98862;"/><path d="M384.477,62.407c0,4.723 -2.083,8.352 -6.322,10.944c2.658,-0.979 4.67,-2.535 6.107,-4.666c1.293,-1.9 1.939,-4.032 1.939,-6.336l0,-0.46c-0.143,-2.592 -1.077,-4.954 -2.802,-7.085c-1.867,-2.361 -4.454,-4.205 -7.83,-5.529c5.963,3.168 8.908,7.545 8.908,13.132Z" style="fill:#a98862;"/><path d="M373.485,67.994c0,-2.937 -1.293,-5.472 -3.807,-7.603c-2.515,-2.131 -5.532,-3.283 -9.196,-3.456l0.862,-0.057c3.808,-0 7.113,1.094 9.771,3.283c2.73,2.131 4.095,4.78 4.095,7.833c-0,1.325 -0.36,2.65 -1.006,3.974c-0.647,0.288 -1.365,0.461 -2.012,0.634c0.862,-1.44 1.293,-2.995 1.293,-4.608Z" style="fill:#cebc9a;"/></g></g><g id="Grill"><g><path d="M207.867,244.456l-8.725,1.998c-1.861,0.426 -3.4,1.551 -4.619,3.376c-0.898,-1.34 -2.438,-1.761 -4.619,-1.261l-8.276,1.895c2.245,0.258 3.913,1.374 5.004,3.394c0.77,1.515 1.155,3.407 1.155,5.677l-0,5.217c-0,1.014 -0.385,1.972 -1.155,2.969c-0.834,1.012 -1.861,1.827 -3.08,2.396c-2.245,1.045 -4.491,1.849 -6.608,2.334c-6.608,1.513 -12.574,0.85 -17.899,-1.988c-6.608,-3.462 -9.88,-9.62 -9.88,-18.363c0,-0.773 0.064,-1.609 0.193,-2.556l0.384,-2.407c0.642,-2.224 1.861,-4.242 3.721,-5.972c1.412,-1.337 2.823,-2.288 4.171,-2.742c-1.54,-0.468 -3.208,-0.618 -5.069,-0.337c2.567,-5.031 6.352,-9.327 11.356,-12.936c4.298,-3.11 8.597,-5.157 13.023,-6.17c2.631,-0.602 5.004,-0.663 7.186,-0.148c2.245,0.5 3.977,1.505 5.26,2.998c0.321,0.41 0.642,0.819 0.834,1.306c0.449,1.009 0.642,2.027 0.642,3.138c-0,0.821 -0.128,1.72 -0.385,2.6c-0.642,2.031 -1.86,3.904 -3.657,5.716c1.925,0.284 3.785,0.196 5.582,-0.215c1.988,-0.456 3.849,-1.316 5.71,-2.612c3.4,-2.372 5.068,-5.169 5.068,-8.309c-0,-3.381 -1.027,-6.286 -3.144,-8.748c-2.117,-2.461 -5.132,-4.186 -9.046,-5.174c-4.106,-1.089 -8.725,-1.045 -13.921,0.144l-0.514,0.118c-10.842,2.579 -20.144,7.848 -28.035,15.838c-8.79,8.919 -13.216,18.966 -13.216,30.22c-0,10.917 4.426,18.694 13.344,23.366c8.019,4.154 17.45,4.989 28.292,2.507c2.631,-0.602 5.197,-1.383 7.763,-2.405c-1.796,3.068 -4.17,5.737 -7.121,8.006c-3.015,2.285 -6.352,3.87 -9.88,4.677c-5.967,1.366 -11.035,1.223 -15.269,-0.465c-4.234,-1.638 -6.351,-4.293 -6.351,-7.964c-2.246,2.591 -3.336,5.159 -3.336,7.671c-0,0.29 -0,0.579 0.064,0.903c0.256,2.646 1.668,4.883 4.234,6.662c-2.63,1.617 -3.914,3.794 -3.914,6.596l0,0.386c0.45,-0.441 1.027,-0.911 1.733,-1.362c0.834,-0.529 1.796,-0.991 2.823,-1.371c0.705,-0.258 1.475,-0.483 2.245,-0.659c1.925,-0.441 3.913,-0.558 5.966,-0.352c0.129,0.019 0.321,0.023 0.514,0.028c0.32,0.023 0.577,0.061 0.898,0.084c0.898,0.036 1.796,0.023 2.758,-0.004c2.759,-0.052 5.261,-0.335 7.635,-0.878c9.367,-2.145 17.386,-6.686 23.994,-13.657c6.608,-6.971 9.944,-14.304 9.944,-21.984l0,-9.274c0,-2.271 0.385,-4.339 1.219,-6.221c1.026,-2.505 2.695,-4.384 5.004,-5.686Z" style="fill:#ebdecc;"/><path d="M148.139,299.623c0.449,-0.248 0.705,-0.596 0.769,-0.949c0.065,-0.16 0.065,-0.256 0.065,-0.353c-0,-0.241 -0.129,-0.453 -0.321,-0.603c-1.732,-1.197 -2.951,-2.657 -3.529,-4.408c-0.32,-0.796 -0.449,-1.636 -0.449,-2.506c0,-1.208 0.321,-2.44 0.898,-3.683c0.193,0.487 0.514,0.945 0.899,1.485c-0.193,0.72 -0.257,1.411 -0.257,2.087c-0,2.608 1.347,4.812 3.978,6.673c0.192,0.149 0.32,0.361 0.32,0.603c0,0.096 0,0.193 -0.064,0.352c-0.064,0.353 -0.321,0.702 -0.77,0.95c-1.154,0.699 -1.988,1.663 -2.566,2.906c-0.641,0.291 -1.219,0.569 -1.732,0.831c0.513,-1.47 1.411,-2.593 2.759,-3.385Z" style="fill:#cebc9a;"/><path d="M158.468,300.398l0.064,0.034l0.192,0.004c0.193,0.004 0.385,0.057 0.642,0.046c0.705,0.032 1.475,0.049 2.309,0.051c2.567,-0.008 4.94,-0.213 7.186,-0.679l-0.77,0.176c-2.374,0.544 -4.876,0.827 -7.635,0.83c-0.898,0.013 -1.732,0.011 -2.566,-0.04c-0.256,0.01 -0.513,-0.027 -0.706,-0.032l-0.192,-0.004l-0.064,-0.034c-1.989,-0.172 -3.914,-0.118 -5.902,0.289l0.834,-0.239c2.181,-0.5 4.362,-0.613 6.608,-0.402Z" style="fill:#cebc9a;"/><path d="M208.509,245.372c-2.117,1.209 -3.593,2.996 -4.427,5.457c-0.321,0.895 -0.577,1.871 -0.706,2.915c-0.128,0.754 -0.192,1.541 -0.192,2.266l-0,9.274c-0,5.265 -1.604,10.559 -4.876,15.849c-3.208,5.13 -7.506,9.592 -12.959,13.4c5.838,-3.607 10.457,-8.045 13.985,-13.297c3.593,-5.411 5.389,-10.846 5.389,-16.304l0,-9.275c0,-1.883 0.321,-3.696 0.899,-5.325c0.705,-2.142 1.86,-3.856 3.464,-5.237c-0.321,0.121 -0.513,0.214 -0.577,0.277Z" style="fill:#a98862;"/><path d="M169.631,292.722l-0.77,0.128c3.657,-0.934 6.993,-2.567 10.072,-4.914c3.144,-2.411 5.646,-5.206 7.57,-8.496c0.129,-0.223 0.193,-0.431 0.193,-0.575c-0,-0.242 -0.128,-0.406 -0.321,-0.603c-0.192,-0.101 -0.385,-0.202 -0.641,-0.24l0.898,-0.302c0.513,-0.118 0.962,-0.075 1.283,0.189c0.192,0.198 0.321,0.361 0.321,0.603c-0,0.145 -0.065,0.353 -0.193,0.575c-1.989,3.402 -4.619,6.275 -7.891,8.714c-3.272,2.44 -6.736,4.054 -10.521,4.921Z" style="fill:#cebc9a;"/><path d="M149.229,282.854c-0.513,0.552 -0.962,1.186 -1.411,1.869c0.834,3.625 3.977,5.851 9.431,6.68c-5.325,-1.486 -8.02,-4.347 -8.02,-8.549Z" style="fill:#a98862;"/><path d="M178.099,280.301l-0.706,0.162c-10.585,2.424 -19.695,1.563 -27.394,-2.519c-8.533,-4.519 -12.767,-12.051 -12.767,-22.533c0,-10.771 4.234,-20.483 12.639,-29.122c7.634,-7.785 16.616,-12.933 27.073,-15.424l1.027,-0.235c-10.329,2.606 -19.247,7.788 -26.753,15.544c-8.276,8.609 -12.446,18.21 -12.446,28.885c-0,10.385 4.17,17.835 12.446,22.364c7.506,4.126 16.488,5.065 26.881,2.878Z" style="fill:#cebc9a;"/><path d="M185.926,270.684c-2.374,1.124 -4.747,1.957 -6.993,2.471l-0.962,0.22c2.117,-0.533 4.298,-1.322 6.415,-2.338c1.604,-0.754 2.887,-1.724 3.85,-2.958c0.962,-1.235 1.475,-2.512 1.475,-3.768l0,-5.216c0,-1.643 -0.192,-3.144 -0.641,-4.442c-0.578,-1.8 -1.476,-3.189 -2.759,-4.102l1.54,-0.353c1.283,0.914 2.181,2.302 2.758,4.102c0.449,1.298 0.642,2.8 0.642,4.442l-0,5.217c-0,1.256 -0.513,2.532 -1.476,3.767c-0.962,1.235 -2.245,2.205 -3.849,2.958Z" style="fill:#cebc9a;"/><path d="M152.309,251.38c-0,-0.773 0.064,-1.609 0.128,-2.541l0.385,-2.407c0.77,-2.591 2.245,-4.813 4.491,-6.679c-1.091,0.539 -2.181,1.368 -3.272,2.488c-1.347,1.419 -2.246,2.977 -2.759,4.785l-0.064,0.353c-0.321,1.861 -0.449,3.339 -0.449,4.354c-0,6.086 1.668,10.872 5.004,14.359c2.823,2.976 6.544,4.829 11.227,5.544c-4.298,-1.093 -7.763,-3.198 -10.265,-6.247c-2.951,-3.575 -4.426,-8.261 -4.426,-14.009Z" style="fill:#a98862;"/><path d="M196.447,250.548l-0.128,0.03c-0.192,0.044 -0.449,0.054 -0.641,0.002c0.256,-0.204 0.449,-0.393 0.577,-0.567c0.064,-0.16 0.257,-0.349 0.449,-0.586c0.193,-0.237 0.449,-0.489 0.77,-0.756c0.706,-0.596 1.347,-0.985 2.053,-1.146l1.54,-0.353c-0.706,0.162 -1.348,0.55 -2.053,1.147c-0.321,0.266 -0.578,0.518 -0.77,0.755c-0.193,0.238 -0.385,0.427 -0.449,0.586c-0.321,0.46 -0.77,0.756 -1.348,0.888Z" style="fill:#cebc9a;"/><path d="M154.811,236.751c0.192,0.004 0.641,-0.002 1.219,0.011c2.63,-4.901 6.415,-9.101 11.355,-12.599c-5.453,3.326 -9.687,7.532 -12.574,12.588Z" style="fill:#a98862;"/><path d="M191.123,220.854c-2.823,-3.266 -7.122,-4.359 -12.896,-3.279l0.706,-0.21c2.887,-0.661 5.517,-0.683 7.955,-0.13c2.438,0.552 4.363,1.609 5.774,3.266c0.385,0.492 0.706,0.998 0.963,1.519c0.513,1.187 0.769,2.384 0.769,3.591c0,2.415 -1.026,4.921 -3.079,7.468c0.706,-0.017 1.54,-0.111 2.374,-0.254l-0.898,0.254c-1.027,0.235 -2.053,0.373 -3.016,0.352c2.053,-2.547 3.08,-5.052 3.08,-7.467c-0,-1.208 -0.257,-2.405 -0.77,-3.592c-0.257,-0.569 -0.577,-1.075 -0.962,-1.518Z" style="fill:#cebc9a;"/><path d="M204.723,223.101c0,3.285 -1.668,6.227 -5.068,8.889c1.989,-1.083 3.593,-2.416 4.812,-4.096c1.219,-1.68 1.86,-3.373 1.86,-5.16c0,-3.381 -1.09,-6.271 -3.207,-8.733c-2.118,-2.461 -5.133,-4.186 -9.046,-5.174c-0.578,-0.206 -1.283,-0.334 -2.117,-0.433c4.041,1.055 7.185,2.895 9.43,5.473c2.246,2.529 3.336,5.612 3.336,9.234Z" style="fill:#a98862;"/></g><g><path d="M247.43,231.879l-3.305,-2.184c4.132,-3.789 7.436,-7.778 9.915,-11.965c2.606,-4.444 3.94,-8.572 3.94,-12.353l0,-4.593c0,-5.503 -2.669,-8.826 -7.944,-9.955c-5.148,-1.049 -11.122,0.142 -18.05,3.688l-7.944,4.066c-2.224,1.138 -3.75,2.685 -4.639,4.671c-1.335,-0.848 -2.924,-0.8 -4.767,0.143l-8.644,4.424c2.225,-0.325 3.877,0.312 4.958,2.008c0.762,1.285 1.144,3.004 1.144,5.253l-0,36.797c-0,2.249 -0.382,4.358 -1.144,6.423c-1.081,2.802 -2.733,5.131 -4.958,7.083l8.644,-4.423c1.843,-0.944 3.368,-2.49 4.576,-4.639c0.89,1.075 2.415,1.06 4.576,-0.046l8.198,-4.196c-2.224,0.325 -3.876,-0.312 -4.957,-2.008c-0.762,-1.285 -1.144,-3.004 -1.144,-5.253l0,-4.019c1.589,-0.526 3.178,-1.148 4.83,-1.946c0.763,0.471 1.462,0.927 2.161,1.382c0.254,0.157 0.445,0.299 0.636,0.393c0.19,0.046 0.254,0.109 0.254,0.157c1.716,1.179 2.86,2.508 3.305,4.146c0.127,0.414 0.191,0.812 0.191,1.242c-0,1.484 -0.763,2.975 -2.225,4.345l9.152,-4.684c0.763,-0.39 1.398,-0.859 1.97,-1.391c0.445,-0.419 0.763,-0.821 0.954,-1.254c0.317,-0.545 0.444,-0.993 0.444,-1.376c2.098,0.458 4.068,0.215 5.848,-0.696l10.677,-5.464c-5.784,0.424 -11.313,-0.814 -16.652,-3.776Zm-21.545,-1.079l0,-21.628c0,-0.622 0.318,-1.359 0.89,-2.083c0.572,-0.723 1.335,-1.353 2.161,-1.776l3.05,-1.561c3.496,-1.789 6.42,-2.233 8.771,-1.379c2.288,0.887 3.432,2.694 3.432,5.469l0,4.594c0,2.823 -1.144,5.801 -3.432,8.982c-2.351,3.309 -5.275,5.858 -8.771,7.647c-2.224,1.139 -4.258,1.701 -6.101,1.735Z" style="fill:#ebdecc;"/><path d="M210.314,206.757l1.526,-0.78c1.271,0.593 2.16,1.717 2.732,3.29c0.382,1.193 0.572,2.626 0.572,4.253l0,36.798c0,1.627 -0.19,3.255 -0.572,4.838c-0.572,2.207 -1.461,4.242 -2.732,6.088l-1.526,0.781c1.208,-1.814 2.161,-3.881 2.733,-6.088c0.381,-1.583 0.572,-3.212 0.572,-4.839l0,-36.797c0,-1.627 -0.191,-3.06 -0.572,-4.253c-0.572,-1.573 -1.462,-2.697 -2.733,-3.291Z" style="fill:#cebc9a;"/><path d="M222.135,254.348l0,0.048l0.064,0.015c0.064,0.015 0.064,0.111 0.127,0.126c0.191,0.094 0.381,0.188 0.572,0.282c0.699,0.168 1.462,0.017 2.415,-0.471l-1.525,0.781c-0.953,0.488 -1.716,0.639 -2.415,0.471c-0.191,-0.094 -0.382,-0.188 -0.572,-0.282c-0.064,-0.015 -0.064,-0.111 -0.127,-0.126l-0.064,-0.016l0,-0.047c-0.127,-0.175 -0.318,-0.221 -0.635,-0.202c0.19,-0.193 0.444,-0.371 0.762,-0.533l0.064,-0.033c0.635,-0.277 1.08,-0.314 1.334,-0.013Z" style="fill:#cebc9a;"/><path d="M228.936,243.259l-0,-2.44l-0.763,0.294l-0.762,0.343l-0,2.584c-0,0.717 0.063,1.403 0.127,2.088c0.19,0.907 0.381,1.719 0.699,2.37c0.889,1.793 2.351,2.528 4.385,2.205c0.064,0.016 0.254,-0.034 0.572,-0.101c-1.589,-0.192 -2.733,-1.09 -3.432,-2.694c-0.572,-1.19 -0.826,-2.783 -0.826,-4.649Z" style="fill:#a98862;"/><path d="M232.05,237.55l1.525,-0.781c1.971,1.289 2.987,1.917 2.987,1.965c0.191,0.093 0.318,0.22 0.509,0.361c0.254,0.157 0.508,0.314 0.699,0.504c0.572,0.521 1.017,1.059 1.398,1.581c0.763,1.093 1.144,2.19 1.144,3.338c0,0.527 -0.063,1.086 -0.254,1.662l-0.254,0.752l-1.526,0.781l0.255,-0.753c0.19,-0.576 0.254,-1.135 0.254,-1.661c-0,-1.148 -0.381,-2.245 -1.144,-3.338c-0.381,-0.523 -0.826,-1.061 -1.398,-1.581c-0.191,-0.19 -0.445,-0.347 -0.699,-0.504c-0.191,-0.142 -0.318,-0.268 -0.509,-0.362c0,-0.048 -1.017,-0.676 -2.987,-1.964Z" style="fill:#cebc9a;"/><path d="M249.083,239.886c0.445,-0.228 0.762,-0.295 1.08,-0.218c0.636,0.105 1.398,0.146 2.225,0.106c1.017,-0.042 1.843,-0.226 2.542,-0.584l-1.525,0.781c-0.7,0.358 -1.526,0.541 -2.543,0.583c-0.826,0.04 -1.589,0 -2.224,-0.105l-0.127,-0.031l-0.191,0.002l0.191,-0.146c0.19,-0.145 0.381,-0.29 0.572,-0.388Z" style="fill:#cebc9a;"/><path d="M250.481,230.318l-3.305,-2.137c4.131,-3.789 7.436,-7.825 9.915,-12.012c2.605,-4.444 3.94,-8.573 3.94,-12.353l0,-4.594c0,-3.684 -1.271,-6.431 -3.877,-8.208c-2.415,-1.682 -5.656,-2.368 -9.724,-1.961c3.687,0.027 6.61,0.971 8.771,2.832c2.224,1.924 3.305,4.625 3.305,8.118l-0,4.594c-0,3.589 -1.208,7.604 -3.559,11.918c-2.352,4.314 -5.53,8.476 -9.661,12.505l2.479,1.554c5.148,2.868 10.487,4.107 16.079,3.685c0.064,0.016 0.191,-0.049 0.445,-0.132c-5.084,0.114 -10.041,-1.129 -14.808,-3.809Z" style="fill:#a98862;"/><path d="M231.986,202.604l1.526,-0.781c3.75,-1.919 6.991,-2.478 9.724,-1.627c2.669,0.882 4.004,2.927 4.004,6.085l-0,4.594c-0,3.206 -1.335,6.568 -4.004,10.184c-2.733,3.647 -5.974,6.455 -9.724,8.374l-0.954,0.44c3.687,-2.03 6.801,-4.773 9.343,-8.275c2.542,-3.55 3.813,-6.832 3.813,-9.943l0,-4.593c0,-3.158 -1.334,-5.203 -4.004,-6.086c-2.732,-0.85 -5.974,-0.292 -9.724,1.628Z" style="fill:#cebc9a;"/><path d="M228.936,229.095l-0,-21.485c-0,-0.43 0.127,-0.878 0.445,-1.376l-0.445,0.228c-1.017,0.52 -1.525,1.163 -1.525,1.929l-0,20.959c0.444,-0.037 0.953,-0.106 1.525,-0.255Z" style="fill:#a98862;"/><path d="M220.801,203.017l0.063,-0.08l0,-0.048c0.064,-0.08 0.127,-0.209 0.191,-0.289c0.191,-0.289 0.381,-0.578 0.572,-0.819c0.699,-0.884 1.462,-1.562 2.352,-2.017l1.588,-0.813c-0.953,0.488 -1.716,1.165 -2.415,2.049c-0.19,0.241 -0.381,0.53 -0.572,0.819c-0.063,0.081 -0.127,0.209 -0.19,0.289l-0,0.048l-0.064,0.08c-0.191,0.529 -0.635,0.948 -1.207,1.288l-0.191,0.098c-0.254,0.13 -0.509,0.212 -0.763,0.247c0.318,-0.306 0.509,-0.548 0.636,-0.852Z" style="fill:#cebc9a;"/></g><g><path d="M288.353,216.166l-0,-36.695c-0,-2.243 0.38,-4.303 1.141,-6.275c1.014,-2.646 2.662,-4.781 4.943,-6.499l-8.619,3.427c-1.838,0.731 -3.359,2.099 -4.563,4.105c-0.888,-1.175 -2.409,-1.333 -4.564,-0.477l-8.175,3.251c2.218,-0.071 3.866,0.753 4.943,2.568c0.761,1.367 1.141,3.125 1.141,5.368l-0,36.695c-0,2.242 -0.38,4.302 -1.141,6.275c-1.077,2.671 -2.725,4.805 -4.943,6.498l8.619,-3.427c1.838,-0.73 3.359,-2.099 4.563,-4.104c0.888,1.174 2.409,1.333 4.564,0.476l8.175,-3.251c-2.281,0.096 -3.929,-0.728 -4.943,-2.567c-0.761,-1.368 -1.141,-3.126 -1.141,-5.368Z" style="fill:#ebdecc;"/><path d="M278.022,183.578l0,36.695c0,1.622 -0.19,3.225 -0.57,4.76c-0.57,2.135 -1.458,4.063 -2.725,5.76l-1.521,0.604c1.204,-1.671 2.154,-3.624 2.725,-5.759c0.38,-1.535 0.57,-3.138 0.57,-4.76l0,-36.695c0,-1.623 -0.19,-3.026 -0.57,-4.259c-0.571,-1.682 -1.521,-2.879 -2.725,-3.64l1.521,-0.605c1.267,0.736 2.155,1.958 2.725,3.64c0.38,1.233 0.57,2.637 0.57,4.259Z" style="fill:#cebc9a;"/><path d="M284.994,225.088l-0,0.048l0.063,0.022c0.064,0.023 0.064,0.118 0.127,0.141c0.19,0.115 0.38,0.23 0.57,0.346c0.698,0.247 1.458,0.184 2.409,-0.194l-1.521,0.604c-0.951,0.378 -1.711,0.442 -2.409,0.195c-0.19,-0.116 -0.38,-0.231 -0.57,-0.346c-0.063,-0.023 -0.063,-0.118 -0.127,-0.141l-0.063,-0.022l-0,-0.048c-0.127,-0.188 -0.317,-0.256 -0.634,-0.273c0.19,-0.171 0.444,-0.319 0.761,-0.445l0.063,-0.026c0.634,-0.204 1.077,-0.189 1.331,0.139Z" style="fill:#cebc9a;"/><path d="M295.641,167.125c-0.316,0.174 -0.507,0.297 -0.57,0.37c-2.028,1.522 -3.486,3.581 -4.373,6.176c-0.317,0.937 -0.57,1.945 -0.697,2.997c-0.064,0.741 -0.127,1.482 -0.127,2.198l0,36.695c0,0.716 0.063,1.454 0.127,2.144c0.127,0.952 0.38,1.71 0.697,2.395c0.887,1.89 2.345,2.79 4.373,2.7c0.063,0.022 0.254,-0.006 0.57,-0.084c-1.584,-0.372 -2.725,-1.35 -3.422,-3.029c-0.57,-1.301 -0.824,-2.87 -0.824,-4.731l0,-36.695c0,-1.861 0.254,-3.632 0.824,-5.338c0.697,-2.233 1.838,-4.166 3.422,-5.798Z" style="fill:#a98862;"/><path d="M283.156,174.618l-0.063,0.025c-0.191,0.076 -0.444,0.129 -0.698,0.134c0.254,-0.196 0.444,-0.415 0.571,-0.608c0.127,-0.194 0.253,-0.435 0.443,-0.654c0.254,-0.339 0.508,-0.631 0.761,-0.875c0.697,-0.754 1.394,-1.27 2.028,-1.522l1.521,-0.605c-0.634,0.252 -1.331,0.768 -2.028,1.522c-0.253,0.244 -0.507,0.536 -0.76,0.875c-0.191,0.219 -0.317,0.46 -0.444,0.654c-0.317,0.46 -0.761,0.827 -1.331,1.054Z" style="fill:#cebc9a;"/></g><g><path d="M308.165,174.602l-0,36.151c-0,2.209 -0.375,4.159 -1.124,5.945c-1.062,2.407 -2.685,4.168 -4.87,5.375l8.491,-1.586c1.811,-0.338 3.309,-1.37 4.496,-3.096c0.874,1.341 2.372,1.813 4.495,1.417l27.66,-5.167c-0.812,-1.118 -2.31,-2.201 -4.496,-3.25c1.998,-1.032 2.997,-2.347 2.997,-3.992l0,-6.064c-1.061,1.89 -2.997,3.474 -5.931,4.775c-2.185,1.019 -4.683,1.768 -7.617,2.316l-7.555,1.411c-0.812,0.152 -1.561,0.057 -2.123,-0.309c-0.562,-0.318 -0.874,-0.823 -0.874,-1.435l-0,-35.022c-0,-2.209 0.374,-4.159 1.124,-5.945c1.061,-2.407 2.684,-4.168 4.87,-5.375l-8.492,1.586c-1.811,0.338 -3.309,1.37 -4.495,3.096c-0.874,-1.341 -2.373,-1.813 -4.496,-1.416l-8.054,1.504c2.185,0.391 3.808,1.545 4.87,3.556c0.749,1.506 1.124,3.316 1.124,5.525Z" style="fill:#ebdecc;"/><path d="M311.536,173.973l0,36.15c0,1.598 -0.187,3.137 -0.562,4.571c-0.561,1.985 -1.436,3.7 -2.684,5.108l-1.499,0.28c1.186,-1.397 2.123,-3.123 2.685,-5.108c0.375,-1.434 0.562,-2.973 0.562,-4.571l-0,-36.15c-0,-1.599 -0.187,-3.021 -0.562,-4.314c-0.562,-1.776 -1.499,-3.152 -2.685,-4.153l1.499,-0.28c1.248,0.989 2.123,2.377 2.684,4.153c0.375,1.293 0.562,2.715 0.562,4.314Z" style="fill:#cebc9a;"/><path d="M318.404,216.314l0,0.047l0.063,0.036c0.062,0.035 0.062,0.129 0.125,0.164c0.187,0.153 0.374,0.306 0.562,0.459c0.687,0.389 1.436,0.484 2.372,0.309l-1.498,0.28c-0.937,0.175 -1.686,0.08 -2.373,-0.309c-0.187,-0.153 -0.374,-0.306 -0.562,-0.459c-0.062,-0.035 -0.062,-0.129 -0.125,-0.164l-0.062,-0.036l-0,-0.047c-0.125,-0.212 -0.312,-0.318 -0.624,-0.4c0.187,-0.129 0.437,-0.223 0.749,-0.281l0.062,-0.012c0.625,-0.07 1.062,0.037 1.311,0.413Z" style="fill:#cebc9a;"/><path d="M345.814,209.831c1.998,-1.032 2.997,-2.346 2.997,-3.992l0,-6.064c-0.374,0.681 -0.874,1.292 -1.498,1.925l-0,4.419c-0,0.799 -0.25,1.551 -0.687,2.291c-0.312,0.575 -0.812,1.092 -1.436,1.631c1.561,0.884 2.685,1.849 3.434,2.838c0.125,0.117 0.187,0.294 0.187,0.482l1.499,-0.28c-0.812,-1.118 -2.31,-2.201 -4.496,-3.25Z" style="fill:#a98862;"/><path d="M334.139,208.204l-1.499,0.28c2.123,-0.397 4.121,-0.911 5.932,-1.578c2.497,-0.89 4.558,-1.933 6.119,-3.165l-0,0.753c-1.561,0.949 -3.372,1.758 -5.495,2.436c-1.561,0.527 -3.247,0.936 -5.057,1.274Z" style="fill:#cebc9a;"/><path d="M323.212,171.792l0,35.021c0,0.753 0.5,1.035 1.499,0.849l0.374,-0.07c-0.249,-0.283 -0.374,-0.635 -0.374,-1.058l-0,-35.022c-0,-1.834 0.249,-3.526 0.811,-5.088c0.687,-2.056 1.811,-3.723 3.372,-5.002c-0.312,0.106 -0.5,0.188 -0.562,0.246c-1.998,1.079 -3.434,2.804 -4.308,5.177c-0.312,0.857 -0.562,1.797 -0.687,2.808c-0.062,0.717 -0.125,1.433 -0.125,2.139Z" style="fill:#a98862;"/><path d="M316.594,166.212l-0.063,0.011c-0.187,0.035 -0.437,0.035 -0.686,-0.013c0.249,-0.14 0.437,-0.316 0.561,-0.481c0.125,-0.164 0.25,-0.375 0.438,-0.551c0.249,-0.282 0.499,-0.517 0.749,-0.704c0.687,-0.599 1.373,-0.962 1.998,-1.079l1.498,-0.28c-0.624,0.117 -1.311,0.48 -1.998,1.079c-0.249,0.187 -0.499,0.422 -0.749,0.704c-0.187,0.176 -0.312,0.387 -0.437,0.552c-0.312,0.387 -0.749,0.657 -1.311,0.762Z" style="fill:#cebc9a;"/></g><g><path d="M360.911,167.817l-0,34.921c-0,2.135 -0.374,3.982 -1.121,5.634c-1.058,2.222 -2.677,3.764 -4.856,4.717l8.467,-0.703c1.805,-0.15 3.3,-1.001 4.482,-2.553c0.872,1.381 2.366,1.984 4.483,1.808l27.58,-2.292c-0.81,-1.159 -2.304,-2.352 -4.483,-3.579c1.993,-0.801 2.989,-1.974 2.989,-3.563l-0,-5.858c-1.059,1.722 -2.989,3.064 -5.915,4.033c-2.179,0.772 -4.669,1.251 -7.595,1.494l-7.533,0.626c-0.81,0.068 -1.557,-0.097 -2.117,-0.505c-0.56,-0.362 -0.872,-0.881 -0.872,-1.471l0,-33.832c0,-2.135 0.374,-3.982 1.121,-5.634c1.058,-2.222 2.677,-3.764 4.856,-4.717l-8.467,0.703c-1.805,0.15 -3.299,1.001 -4.482,2.553c-0.872,-1.381 -2.366,-1.983 -4.483,-1.808l-8.031,0.668c2.179,0.591 3.798,1.864 4.856,3.91c0.747,1.528 1.121,3.313 1.121,5.448Z" style="fill:#ebdecc;"/><path d="M398.452,205.522c1.992,-0.801 2.988,-1.974 2.988,-3.564l0,-5.858c-0.374,0.622 -0.872,1.163 -1.494,1.714l-0,4.269c-0,0.772 -0.249,1.473 -0.685,2.145c-0.311,0.526 -0.809,0.976 -1.432,1.436c1.557,1.006 2.677,2.049 3.424,3.076c0.125,0.126 0.187,0.303 0.187,0.484l1.494,-0.124c-0.809,-1.159 -2.303,-2.351 -4.482,-3.578Z" style="fill:#a98862;"/><path d="M371.121,209.11l-0,0.046l0.062,0.04c0.062,0.04 0.062,0.131 0.125,0.171c0.186,0.166 0.373,0.332 0.56,0.499c0.685,0.442 1.432,0.607 2.366,0.53l-1.494,0.124c-0.934,0.077 -1.681,-0.088 -2.366,-0.53c-0.187,-0.166 -0.374,-0.332 -0.561,-0.499c-0.062,-0.04 -0.062,-0.131 -0.124,-0.171l-0.062,-0.04l-0,-0.046c-0.125,-0.216 -0.312,-0.337 -0.623,-0.447c0.187,-0.107 0.436,-0.173 0.747,-0.199l0.062,-0.005c0.623,-0.006 1.059,0.139 1.308,0.527Z" style="fill:#cebc9a;"/><path d="M364.273,167.537l-0,34.922c-0,1.544 -0.187,3.013 -0.561,4.361c-0.56,1.863 -1.432,3.434 -2.677,4.673l-1.494,0.124c1.183,-1.234 2.117,-2.81 2.677,-4.673c0.374,-1.348 0.56,-2.817 0.56,-4.361l0,-34.922c0,-1.544 -0.186,-2.936 -0.56,-4.222c-0.56,-1.77 -1.494,-3.191 -2.677,-4.273l1.494,-0.124c1.245,1.077 2.117,2.503 2.677,4.273c0.374,1.286 0.561,2.678 0.561,4.222Z" style="fill:#cebc9a;"/><path d="M386.81,202.811l-1.495,0.124c2.117,-0.176 4.109,-0.477 5.915,-0.945c2.49,-0.616 4.545,-1.423 6.101,-2.46l0,0.726c-1.556,0.765 -3.362,1.37 -5.479,1.818c-1.556,0.356 -3.237,0.587 -5.042,0.737Z" style="fill:#cebc9a;"/><path d="M375.915,166.57l-0,33.831c-0,0.727 0.498,1.049 1.494,0.966l0.373,-0.031c-0.249,-0.297 -0.373,-0.65 -0.373,-1.059l-0,-33.832c-0,-1.771 0.249,-3.381 0.809,-4.835c0.685,-1.919 1.806,-3.42 3.362,-4.503c-0.311,0.071 -0.498,0.132 -0.56,0.183c-1.993,0.847 -3.424,2.374 -4.296,4.58c-0.311,0.798 -0.56,1.682 -0.685,2.646c-0.062,0.686 -0.124,1.372 -0.124,2.054Z" style="fill:#a98862;"/><path d="M369.315,160.533l-0.062,0.006c-0.187,0.015 -0.436,-0.01 -0.685,-0.08c0.249,-0.111 0.436,-0.263 0.561,-0.41c0.124,-0.146 0.249,-0.338 0.435,-0.49c0.249,-0.248 0.498,-0.45 0.747,-0.607c0.685,-0.511 1.37,-0.795 1.993,-0.847l1.494,-0.124c-0.623,0.052 -1.308,0.336 -1.992,0.847c-0.249,0.157 -0.498,0.359 -0.747,0.607c-0.187,0.152 -0.312,0.344 -0.436,0.49c-0.312,0.344 -0.747,0.562 -1.308,0.608Z" style="fill:#cebc9a;"/></g></g><g><path d="M133.718,262.581c0.372,0.299 0.56,0.716 0.554,1.153c0.657,-0.072 1.318,-0.128 1.983,-0.171c-2.429,-1.953 -5.015,-3.346 -7.69,-4.251c1.81,0.882 3.535,1.969 5.153,3.269Zm284.932,-31.061c13.898,6.378 23.205,18.807 23.243,33.635c0.028,10.922 -4.942,21.54 -13.995,29.901c-2.586,2.388 -5.423,4.502 -8.448,6.338c14.563,-7.619 24.46,-21.351 24.422,-36.383c-0.039,-15.244 -10.288,-27.84 -25.222,-33.491Zm-320.28,66.701c-0.029,-11.227 6.744,-21.561 17.01,-27.99c-11.305,5.886 -19.019,16.538 -18.989,28.134c0.03,11.917 8.133,21.743 19.891,26.037c-10.721,-5.025 -17.883,-14.679 -17.912,-26.181Zm270.253,-28.415c-0.689,0.64 -1.313,1.294 -1.881,1.959c0.794,8.161 6.749,14.777 15.101,17.662c-7.925,-3.833 -13.198,-11.046 -13.22,-19.621Z" style="fill:#cebc9a;fill-rule:nonzero;"/><path d="M393.231,228.716c-33.564,2.138 -79.981,11.954 -133.552,37.559c-47.287,22.602 -91.994,59.809 -127.217,62.053c-20.935,1.334 -38.005,-12.042 -38.05,-29.818c-0.045,-17.777 16.95,-33.324 37.885,-34.658c-21.756,-17.489 -55.977,9.592 -55.91,35.736c0.001,0.44 0.011,0.878 0.026,1.315c-5.712,-0.5 -9.483,3.655 -9.483,3.655c-0,0 7.641,-0.894 12.566,10.342c0.005,0.013 0.011,0.021 0.016,0.033c7.642,18.05 28.454,30.065 52.837,28.511c36.922,-2.353 83.842,-39.439 135.213,-63.994c49.389,-23.606 96.277,-33.647 125.708,-35.521c15.806,-1.008 28.694,9.091 28.728,22.512c0.035,13.422 -12.798,25.16 -28.604,26.167c-15.806,1.007 -28.694,-9.093 -28.728,-22.513c-7.68,7.142 -7.713,15.954 -3.043,23.274c-5.803,2.1 -6.594,7.423 -6.594,7.423c0,-0 5.852,-3.933 16.599,1.947c0.331,0.194 0.665,0.385 1.005,0.57c0.027,0.017 0.052,0.029 0.079,0.046c0.007,0.003 0.013,0.005 0.019,0.01c5.829,3.16 13.006,4.946 20.701,4.456c25.687,-1.637 46.537,-20.711 46.482,-42.521c-0.056,-21.81 -20.997,-38.221 -46.683,-36.584Z" style="fill:#ebdecc;fill-rule:nonzero;"/><path d="M364.241,295.973c0.546,-0.197 0.983,-0.58 1.196,-1.05c0.215,-0.469 0.186,-0.978 -0.08,-1.392c-3.353,-5.258 -3.861,-10.646 -1.629,-15.481c-0.241,-0.746 -0.443,-1.509 -0.602,-2.286c-3.713,5.414 -3.675,11.753 0.253,17.912c0.266,0.414 0.294,0.922 0.08,1.391c-0.214,0.47 -0.651,0.853 -1.195,1.05c-2.011,0.727 -3.269,1.949 -4.049,3.097c0.405,-0.063 0.836,-0.114 1.296,-0.148c0.235,-0.017 0.473,-0.028 0.71,-0.035c0.783,-1.137 2.034,-2.339 4.02,-3.058Zm-280.883,19.334c-0.009,-0.022 -0.022,-0.051 -0.035,-0.077c-2.998,-6.826 -7.013,-9.568 -10.076,-10.646c0.698,-0.343 1.506,-0.645 2.401,-0.819c-0.325,-0.013 -0.652,-0.015 -0.973,0.008c-1.302,0.095 -2.457,0.488 -3.406,0.956c3.062,1.078 7.077,3.819 10.076,10.645c0.012,0.026 0.025,0.055 0.035,0.077c7.586,17.917 28.076,28.975 50.986,27.516c0.311,-0.019 0.627,-0.041 0.939,-0.064c0.253,-0.019 0.51,-0.047 0.764,-0.067c-22.798,1.353 -43.156,-9.684 -50.711,-27.529Zm292.416,-12.38c-0.322,-0.176 -0.638,-0.357 -0.951,-0.542c-0.017,-0.01 -0.034,-0.019 -0.051,-0.029c-4.714,-2.578 -9.182,-3.734 -13.283,-3.434c-0.341,0.024 -0.662,0.062 -0.973,0.104c3.823,-0.058 7.946,1.106 12.277,3.475c0.017,0.01 0.034,0.019 0.051,0.029c0.313,0.185 0.63,0.366 0.952,0.541c0.006,0.004 0.085,0.048 0.095,0.053c5.899,3.2 12.662,4.659 19.559,4.22l0.5,-0.035c0.292,-0.021 0.582,-0.055 0.873,-0.082c-6.687,0.319 -13.228,-1.142 -18.953,-4.248c-0.01,-0.004 -0.089,-0.049 -0.096,-0.052Zm19.492,-59.621c-0.201,0.013 -0.4,0.027 -0.604,0.041c-0.361,0.027 -0.729,0.06 -1.096,0.092c16.758,-0.94 30.374,9.805 30.41,24.062c0.036,13.924 -13.016,26.249 -29.287,27.877c0.222,-0.01 0.443,-0.014 0.666,-0.029l0.341,-0.022c16.722,-1.223 30.295,-13.77 30.259,-27.97c-0.036,-14.338 -13.804,-25.126 -30.689,-24.051Zm-2.053,-11.705c-0.245,0.016 -0.493,0.033 -0.739,0.051c-33.116,2.418 -77.766,10.25 -130.745,35.572c-7.783,3.72 -16.121,8.535 -23.51,12.158c-15.543,7.622 -31.02,18.78 -45.912,27.783c-21.032,12.714 -40.897,22.506 -58.131,23.915c0.084,-0.006 0.165,-0.005 0.247,-0.01c0.296,-0.019 0.588,-0.039 0.884,-0.061c17.015,-1.243 36.761,-10.546 57.651,-22.938c15.527,-9.211 31.685,-20.748 47.825,-28.662c7.39,-3.624 15.729,-8.439 23.51,-12.158c52.433,-25.06 96.009,-32.827 129.125,-35.659c-0.069,0.005 -0.136,0.005 -0.205,0.009Zm-314.817,72.041c0.466,-0.034 0.922,-0.208 1.282,-0.496c0.455,-0.362 0.709,-0.867 0.691,-1.374c-0.014,-0.422 -0.024,-0.843 -0.025,-1.268c-0.023,-8.899 4.171,-18.499 11.506,-26.338c6.892,-7.365 15.437,-12.033 23.606,-12.948c-0.313,0.011 -0.623,0.014 -0.941,0.038c-8.477,0.619 -17.46,5.376 -24.644,13.054c-7.334,7.839 -11.528,17.439 -11.505,26.338c0.001,0.425 0.011,0.847 0.025,1.268c0.017,0.508 -0.237,1.012 -0.691,1.375c-0.168,0.134 -0.357,0.24 -0.557,0.322c0.294,-0.004 0.59,0.001 0.885,0.027c0.123,0.01 0.246,0.011 0.368,0.002Z" style="fill:#cebc9a;fill-rule:nonzero;"/></g><g><path d="M129.029,47.354c6.097,3.74 11.086,9.16 13.895,15.587c3.538,8.097 2.846,16.126 -1.817,22.534c0.029,0.5 0.048,1.003 0.048,1.509c12.345,-12.406 3.81,-31.636 -12.126,-39.63Zm313.631,1.848c-0.015,0.066 -0.03,0.134 -0.052,0.2c-0.062,0.182 -1.094,3.104 -3.854,5.287c4.373,-1.539 5.843,-5.863 5.843,-5.863c-0,0 -0.694,0.302 -1.937,0.376Zm-7.03,7.217c2.421,6.424 3.647,13.161 3.647,20.06c0,11.494 -6.7,22.363 -16.716,28.563c10.885,-5.379 18.611,-16.362 18.611,-28.563c0,-7.312 -1.439,-14.303 -4.045,-20.727c-0.466,0.249 -0.958,0.479 -1.497,0.667Zm-337.025,8.321c-8.433,4.059 -14.247,12.504 -14.247,22.244c0,9.742 5.814,18.187 14.247,22.246c-7.436,-4.774 -12.352,-12.961 -12.352,-22.246c0,-9.283 4.916,-17.47 12.352,-22.244Zm335.557,-18.345c-1.657,-1.127 -3.459,-2.675 -5.371,-4.803c-0.002,-0.003 -0.004,-0.006 -0.007,-0.008c-4.857,-6.03 -10.943,-11.081 -17.885,-14.806c5.864,3.571 11.134,8.152 15.555,13.631c2.967,3.29 5.59,5.054 7.708,5.986Z" style="fill:#cebc9a;fill-rule:nonzero;"/><path d="M440.808,48.826c-0,0 -6.677,2.931 -15.806,-7.234c-0.002,-0.003 -0.004,-0.006 -0.007,-0.008c-10.705,-13.291 -27.369,-21.851 -46.054,-21.851c-43.068,0 -99.791,26.618 -154.648,52.359c-45.532,21.367 -88.539,41.548 -114.378,41.548c-15.137,-0 -27.451,-11.958 -27.451,-26.656c0,-14.696 12.314,-26.653 27.451,-26.653c15.136,-0 27.45,11.957 27.45,26.653c15.91,-15.988 -2.853,-43.313 -27.45,-43.313c-24.596,0 -44.608,19.431 -44.608,43.313c0,3.701 0.482,7.292 1.385,10.723c-6.024,0.199 -8.415,5.681 -8.415,5.681c-0,-0 6.902,-2.388 15.139,8.471c0.045,0.059 0.089,0.113 0.132,0.161c8.092,11.049 21.372,18.279 36.367,18.279c29.768,0 74.492,-20.988 121.844,-43.207c50.643,-23.764 108.043,-50.699 147.182,-50.699c22.765,-0 41.285,17.982 41.285,40.086c0,11.808 -2.632,20.866 -9.086,31.267c14.724,-3.28 26.242,-16.369 26.242,-31.267c0,-7.545 -1.528,-14.749 -4.293,-21.341c5.84,-0.773 7.719,-6.312 7.719,-6.312Z" style="fill:#ebdecc;fill-rule:nonzero;"/><path d="M76.987,110.955c-0.033,-0.045 -0.068,-0.088 -0.105,-0.131l-0.047,-0.059c-5.047,-6.652 -9.794,-8.721 -12.949,-9.267c1.083,-0.983 2.645,-1.883 4.765,-1.953c0.574,-0.018 1.108,-0.288 1.452,-0.735c0.345,-0.445 0.462,-1.018 0.319,-1.558c-0.88,-3.343 -1.326,-6.798 -1.326,-10.268c0,-22.597 18.713,-41.018 41.881,-41.452c-0.353,-0.013 -0.707,-0.021 -1.062,-0.021c-23.553,0 -42.713,18.606 -42.713,41.473c0,3.47 0.446,6.925 1.326,10.268c0.142,0.54 0.025,1.113 -0.319,1.558c-0.345,0.447 -0.879,0.717 -1.452,0.735c-2.121,0.07 -3.683,0.97 -4.766,1.953c3.156,0.546 7.902,2.615 12.948,9.267l0.048,0.059c0.037,0.043 0.072,0.086 0.105,0.131c8.027,10.961 21.045,17.504 34.823,17.504c0.252,-0 0.514,-0.014 0.768,-0.017c-13.357,-0.345 -25.888,-6.826 -33.696,-17.487Zm303.849,-76.402c-0.439,-0 -0.884,0.008 -1.327,0.013c23.547,0.298 42.612,18.98 42.612,41.913c0,10.605 -2.06,19.057 -6.987,28.142c0.836,-0.32 1.654,-0.678 2.454,-1.064c4.519,-8.685 6.427,-16.888 6.427,-27.078c0,-23.118 -19.37,-41.926 -43.179,-41.926Zm-1.895,-12.979c-42.634,-0 -99.16,26.524 -153.823,52.174c-45.18,21.201 -87.874,41.227 -114.232,41.708c0.307,0.01 0.614,0.023 0.924,0.023c26.272,-0 70.031,-20.036 115.764,-41.496c54.19,-25.43 109.645,-51.945 152.147,-52.398c-0.26,-0.004 -0.519,-0.011 -0.78,-0.011Zm-240.111,60.537c0.511,-0.843 0.936,-1.719 1.293,-2.617c-3.396,-12.089 -14.801,-21.004 -28.313,-21.004c-0.301,0 -0.597,0.014 -0.896,0.023c14.023,0.459 25.585,10.51 27.916,23.598Z" style="fill:#cebc9a;fill-rule:nonzero;"/></g></g><g id="Swirls"><path d="M31.602,150.296c-1.657,-1.561 -2.984,-3.201 -4.002,-4.9c-1.23,-2.051 -2.014,-4.178 -2.407,-6.291c-0.226,-1.215 -0.312,-2.43 -0.277,-3.622c0.053,-1.843 0.385,-3.641 0.956,-5.332c0.974,-2.884 2.592,-5.482 4.66,-7.54c3.198,-3.183 7.394,-5.085 11.707,-4.911c-4.086,0.38 -7.765,2.695 -10.449,6.042c-1.638,2.043 -2.868,4.473 -3.56,7.116c-0.33,1.258 -0.527,2.559 -0.597,3.891c-0.067,1.282 -0.001,2.588 0.2,3.911c0.285,1.867 0.836,3.762 1.766,5.646c0.838,1.698 1.929,3.398 3.382,5.039c0.149,0.152 0.233,0.357 0.234,0.57l-0.769,12.775l-0.844,-12.394Z" style="fill:#c2996a;"/><path d="M21.274,172.421c-9.749,6.692 -16.643,16.314 -19.48,27.174c-1.433,5.487 -1.827,11.29 -1.037,17.172c0.734,5.46 2.522,10.98 5.391,16.402c1.913,3.498 4.191,6.645 6.841,9.402c3.983,4.146 8.761,7.448 14.163,9.945c4.985,2.304 10.507,3.922 16.457,4.861c7.848,1.24 16.429,1.296 25.491,0.278c-12.886,0.778 -24.676,-0.616 -34.667,-4.242c-6.811,-2.471 -12.755,-6.004 -17.633,-10.66c-3.262,-3.113 -6.06,-6.714 -8.274,-10.87c-2.814,-5.096 -4.555,-10.309 -5.393,-15.468c-0.909,-5.59 -0.746,-11.119 0.386,-16.41c2.303,-10.77 8.547,-20.527 17.755,-27.584Z" style="fill:#c2996a;"/><path d="M70.728,334.181c9.067,11.324 23.879,22.371 43.507,26.686c9.348,2.055 19.785,2.583 31.198,0.888c6.448,-0.957 13.204,-2.641 20.254,-5.141c7.495,-2.684 14.788,-5.793 21.939,-9.258c7.096,-3.438 14.061,-7.206 20.979,-11.175c8.149,-4.674 16.23,-9.631 24.405,-14.635c11.904,-7.286 23.995,-14.681 36.746,-21.524c14.422,-7.74 29.67,-14.795 46.447,-20.166c-16.952,4.932 -32.438,11.553 -47.075,18.963c-12.941,6.552 -25.221,13.7 -37.278,20.795c-8.242,4.851 -16.382,9.67 -24.55,14.272c-6.898,3.887 -13.818,7.615 -20.849,11.057c-7.057,3.455 -14.216,6.643 -21.6,9.371c-6.864,2.561 -13.454,4.298 -19.748,5.358c-11.15,1.877 -21.375,1.599 -30.583,-0.186c-19.55,-3.791 -34.505,-14.332 -43.792,-25.305Z" style="fill:#c2996a;"/><path d="M378.241,324.406c6.258,1.05 12.374,1.421 18.282,1.161c9.672,-0.424 18.772,-2.486 26.947,-5.86c5.891,-2.432 11.299,-5.551 16.096,-9.207c3.358,-2.559 6.419,-5.384 9.123,-8.436c2.622,-2.959 4.908,-6.133 6.835,-9.461c1.97,-3.406 3.561,-6.979 4.73,-10.67c2.695,-8.51 3.196,-17.639 0.993,-26.819c-1.914,-7.971 -5.881,-15.972 -12.201,-23.655c6.06,8.13 9.621,16.473 11.089,24.666c1.093,6.101 1.007,12.108 -0.099,17.887c-1.118,5.842 -3.3,11.431 -6.354,16.637c-1.985,3.383 -4.343,6.596 -7.022,9.617c-2.598,2.932 -5.495,5.682 -8.674,8.2c-4.579,3.626 -9.727,6.771 -15.348,9.321c-7.902,3.585 -16.716,5.997 -26.178,6.855c-5.857,0.531 -11.949,0.492 -18.219,-0.236Z" style="fill:#c2996a;"/><path d="M403.343,181.078c1.198,0.303 2.274,0.675 3.308,1.088c1.693,0.678 3.122,1.507 4.404,2.443c0.6,0.438 1.146,0.902 1.672,1.38c0.808,0.734 1.503,1.537 2.153,2.366c0.442,0.563 0.869,1.131 1.26,1.727c0.598,0.912 1.141,1.852 1.595,2.858c0.459,1.019 0.854,2.059 1.175,3.155c0.483,1.652 0.828,3.336 0.998,5.101c0.279,-1.798 0.397,-3.561 0.296,-5.325c-0.071,-1.232 -0.259,-2.425 -0.551,-3.597c-0.304,-1.215 -0.732,-2.378 -1.295,-3.481c-0.381,-0.745 -0.833,-1.455 -1.351,-2.118c-0.386,-0.494 -0.813,-0.961 -1.28,-1.393c-1.041,-0.966 -2.235,-1.807 -3.602,-2.471c-0.808,-0.392 -1.659,-0.723 -2.582,-0.982c-1.858,-0.522 -3.892,-0.775 -6.2,-0.751Z" style="fill:#c2996a;"/><path d="M459.91,63.847c0.475,3.166 0.789,6.216 0.897,9.158c0.081,2.194 0.055,4.327 -0.083,6.396c-0.147,2.194 -0.418,4.317 -0.804,6.367c-0.615,3.263 -1.517,6.345 -2.688,9.248c-1.624,4.024 -3.757,7.707 -6.404,11.055c-3.767,4.762 -8.558,8.828 -14.345,12.285c5.427,-3.832 9.803,-8.203 13.185,-13.139c2.317,-3.383 4.143,-7.03 5.501,-10.972c0.972,-2.823 1.689,-5.793 2.182,-8.922c0.311,-1.971 0.53,-4.003 0.667,-6.101c0.131,-1.992 0.19,-4.042 0.169,-6.156c-0.031,-2.965 -0.197,-6.052 -0.562,-9.266c-0.032,-0.246 0.017,-0.495 0.14,-0.709c3.301,-5.358 4.801,-10.098 4.741,-14.353c-0.074,-5.164 -2.422,-9.597 -6.653,-13.523c4.692,3.706 7.448,8.13 7.906,13.46c0.378,4.411 -0.848,9.425 -3.849,15.172Z" style="fill:#c2996a;"/><path d="M428.228,16.504c-3.259,-2.017 -6.51,-3.889 -9.811,-5.581c-5.122,-2.626 -10.311,-4.85 -15.677,-6.585c-3.599,-1.164 -7.275,-2.1 -11.046,-2.8c-2.469,-0.458 -4.98,-0.815 -7.539,-1.042c-2.488,-0.222 -5.022,-0.323 -7.602,-0.312c-3.685,0.015 -7.465,0.264 -11.358,0.737c-3.625,0.439 -7.343,1.078 -11.175,1.931c-5.214,1.16 -10.616,2.72 -16.281,4.665c5.773,-1.492 11.261,-2.588 16.521,-3.374c3.83,-0.572 7.528,-0.967 11.124,-1.201c3.829,-0.25 7.532,-0.299 11.137,-0.193c2.51,0.073 4.97,0.229 7.393,0.446c2.488,0.224 4.935,0.511 7.349,0.883c3.7,0.57 7.318,1.33 10.889,2.268c5.381,1.413 10.64,3.216 15.873,5.417c3.408,1.433 6.801,3.005 10.203,4.741Z" style="fill:#c2996a;"/><path d="M166.869,77.865c10.11,-4.98 20.168,-9.818 30.237,-14.505c10.796,-5.024 21.596,-9.888 32.445,-14.654c21.551,-9.467 43.295,-18.524 65.6,-27.622c-22.079,9.613 -43.573,19.228 -64.915,29.137c-10.737,4.984 -21.431,10.047 -32.142,15.222c-10.598,5.119 -21.217,10.332 -31.88,15.743c-0.411,0.205 -0.898,0.187 -1.292,-0.049c-0.394,-0.236 -0.64,-0.657 -0.653,-1.116c-0.242,-8.794 -1.874,-16.409 -4.554,-22.919c-3.763,-9.142 -9.625,-16.088 -16.758,-20.999c-7.49,-5.158 -16.356,-8.079 -25.618,-8.971c-25.696,-2.474 -54.365,10.676 -65.334,35.76c10.522,-25.697 39.388,-39.627 65.496,-37.641c11.589,0.881 22.639,4.909 31.351,12.364c5.536,4.738 10.133,10.868 13.314,18.469c2.615,6.247 4.26,13.495 4.703,21.781Z" style="fill:#c2996a;"/><path d="M60.664,284.857c0.312,-1.171 0.629,-2.281 0.974,-3.332c0.685,-2.087 1.421,-3.943 2.205,-5.637c1.576,-3.406 3.305,-6.102 5.135,-8.585c-1.446,2.676 -2.717,5.56 -3.84,9.087c-0.868,2.729 -1.647,5.822 -2.244,9.523c-0.071,0.326 -0.273,0.61 -0.559,0.783c-1.462,0.935 -2.766,1.892 -3.962,2.821c-0.887,0.689 -1.705,1.373 -2.466,2.046c-2.255,1.994 -3.932,3.958 -5.049,6.004c-1.068,1.957 -1.667,3.933 -1.833,5.972c-0.252,3.106 0.41,6.29 1.799,9.565c-1.891,-3.171 -3.03,-6.36 -3.167,-9.591c-0.096,-2.288 0.321,-4.578 1.314,-6.867c1.032,-2.379 2.692,-4.761 5.121,-7.065c0.795,-0.754 1.685,-1.488 2.661,-2.206c1.174,-0.864 2.482,-1.692 3.911,-2.518Z" style="fill:#c2996a;"/></g></g><defs><linearGradient id="_Linear1" x1="0" y1="0" x2="1" y2="0" gradientUnits="userSpaceOnUse" gradientTransform="matrix(461.019,0,0,359.458,1.35094,181.653)"><stop offset="0" style="stop-color:#122d48;stop-opacity:1"/><stop offset="1" style="stop-color:#071925;stop-opacity:1"/></linearGradient></defs></svg>