<?xml version="1.0" encoding="UTF-8" standalone="no"?><!DOCTYPE svg PUBLIC "-//W3C//DTD SVG 1.1//EN" "http://www.w3.org/Graphics/SVG/1.1/DTD/svg11.dtd"><svg width="100%" height="100%" viewBox="0 0 214 214" version="1.1" xmlns="http://www.w3.org/2000/svg" xmlns:xlink="http://www.w3.org/1999/xlink" xml:space="preserve" xmlns:serif="http://www.serif.com/" style="fill-rule:evenodd;clip-rule:evenodd;stroke-linecap:round;stroke-linejoin:round;stroke-miterlimit:1.5;"><g id="phone"><circle cx="106.679" cy="106.679" r="102.512" style="fill:#f00;stroke:#f00;stroke-width:8.33px;"/><path d="M107.096,82.26c14.597,2.614 22.877,11.361 25.751,25.347c0.463,2.253 2.668,3.706 4.92,3.243c2.253,-0.463 3.706,-2.668 3.243,-4.92c-3.618,-17.605 -14.072,-28.583 -32.445,-31.872c-2.263,-0.406 -4.43,1.103 -4.836,3.367c-0.405,2.263 1.104,4.43 3.367,4.835Z" style="fill:#fff;"/><path d="M107.251,64.197c12.807,2.035 23.093,6.387 30.469,13.537c7.289,7.065 11.653,16.839 12.976,29.523c0.239,2.288 2.29,3.951 4.577,3.712c2.287,-0.239 3.95,-2.289 3.712,-4.576c-1.557,-14.922 -6.891,-26.331 -15.465,-34.642c-8.486,-8.227 -20.227,-13.443 -34.961,-15.784c-2.271,-0.361 -4.408,1.19 -4.769,3.461c-0.361,2.271 1.19,4.408 3.461,4.769Z" style="fill:#fff;"/><path d="M110.119,124.481l11.29,-7.449c0.82,-0.541 1.806,-0.775 2.782,-0.66c5.541,0.653 12.979,2.912 24.848,9.289c1.25,0.672 2.073,1.934 2.182,3.349c0.791,10.216 -1.809,19.392 -9.123,27.129c-0.868,0.917 -2.106,1.392 -3.365,1.29c-43.731,-3.55 -72.265,-30.572 -84.276,-82.863c-0.352,-1.533 0.188,-3.132 1.397,-4.137c7.835,-6.513 17.591,-9.851 28.959,-10.473c1.514,-0.083 2.953,0.663 3.758,1.947c4.093,6.53 6.686,16.56 8.258,29.549c0.142,1.172 -0.22,2.349 -0.996,3.239l-7.427,8.519c5.741,7.899 12.426,15.277 21.713,21.271Zm-27.409,-56.008c-7.43,0.735 -13.998,2.893 -19.516,6.817c11.139,45.452 35.954,69.773 74.148,73.644c4.097,-5.001 5.765,-10.747 5.675,-17.03c-8.317,-4.318 -13.973,-6.295 -18.341,-7.044l-12.193,8.045c-1.333,0.88 -3.053,0.919 -4.426,0.102c-12.649,-7.531 -21.13,-17.248 -28.371,-27.687c-1.087,-1.568 -0.971,-3.674 0.283,-5.113l8.355,-9.584c-1.21,-9.272 -2.911,-16.771 -5.614,-22.15Z" style="fill:#fff;"/></g></svg>