<?xml version="1.0" encoding="UTF-8" standalone="no"?><!DOCTYPE svg PUBLIC "-//W3C//DTD SVG 1.1//EN" "http://www.w3.org/Graphics/SVG/1.1/DTD/svg11.dtd"><svg width="100%" height="100%" viewBox="0 0 214 214" version="1.1" xmlns="http://www.w3.org/2000/svg" xmlns:xlink="http://www.w3.org/1999/xlink" xml:space="preserve" xmlns:serif="http://www.serif.com/" style="fill-rule:evenodd;clip-rule:evenodd;stroke-linecap:round;stroke-linejoin:round;stroke-miterlimit:1.5;"><g id="time"><circle cx="106.679" cy="106.679" r="102.512" style="fill:#f00;stroke:#f00;stroke-width:8.33px;"/><path d="M106.679,53.605c-29.373,-0 -53.22,23.847 -53.22,53.22c0,29.373 23.847,53.22 53.22,53.22c29.373,-0 53.22,-23.847 53.22,-53.22c-0,-29.373 -23.847,-53.22 -53.22,-53.22Zm-0,8.333c24.774,0 44.887,20.113 44.887,44.887c-0,24.774 -20.113,44.887 -44.887,44.887c-24.774,-0 -44.887,-20.113 -44.887,-44.887c0,-24.774 20.113,-44.887 44.887,-44.887Z" style="fill:#fff;"/><path d="M103.733,109.771l19.913,19.914c1.626,1.626 4.266,1.626 5.893,-0c1.626,-1.627 1.626,-4.267 -0,-5.893l-19.914,-19.913c-1.626,-1.626 -4.266,-1.626 -5.892,-0c-1.626,1.626 -1.626,4.266 -0,5.892Z" style="fill:#fff;"/><path d="M110.846,106.825l-0,-39.818c-0,-2.299 -1.867,-4.166 -4.167,-4.166c-2.3,-0 -4.167,1.867 -4.167,4.166l0,39.818c0,2.3 1.867,4.167 4.167,4.167c2.3,-0 4.167,-1.867 4.167,-4.167Z" style="fill:#fff;"/></g></svg>